<?xml version="1.0" encoding="UTF-8" standalone="no"?>
<svg
   xmlns:dc="http://purl.org/dc/elements/1.1/"
   xmlns:cc="http://creativecommons.org/ns#"
   xmlns:rdf="http://www.w3.org/1999/02/22-rdf-syntax-ns#"
   xmlns:svg="http://www.w3.org/2000/svg"
   xmlns="http://www.w3.org/2000/svg"
   xmlns:sodipodi="http://sodipodi.sourceforge.net/DTD/sodipodi-0.dtd"
   xmlns:inkscape="http://www.inkscape.org/namespaces/inkscape"
   width="158.48152mm"
   height="199.47867mm"
   viewBox="0 0 158.48152 199.47867"
   version="1.1"
   id="svg8"
   inkscape:version="1.0.1 (3bc2e813f5, 2020-09-07)"
   sodipodi:docname="admin_ste-croix.svg"
   inkscape:export-filename="E:\icones\inkscape\logos\orbe.png"
   inkscape:export-xdpi="96"
   inkscape:export-ydpi="96">
  <defs
     id="defs2">
    <clipPath
       clipPathUnits="userSpaceOnUse"
       id="clipPath849">
      <path
         d="M 0,155.835 H 240.945 V 0 H 0 Z"
         id="path847" />
    </clipPath>
    <clipPath
       clipPathUnits="userSpaceOnUse"
       id="clipPath1448">
      <path
         d="M 0,155.835 H 240.945 V 0 H 0 Z"
         id="path1446" />
    </clipPath>
    <clipPath
       clipPathUnits="userSpaceOnUse"
       id="clipPath1448-7">
      <path
         d="M 0,155.835 H 240.945 V 0 H 0 Z"
         id="path1446-1" />
    </clipPath>
    <clipPath
       clipPathUnits="userSpaceOnUse"
       id="clipPath849-1">
      <path
         d="M 0,35.433 H 28.151 V 0 H 0 Z"
         id="path847-4" />
    </clipPath>
  </defs>
  <sodipodi:namedview
     id="base"
     pagecolor="#ffffff"
     bordercolor="#666666"
     borderopacity="1.0"
     inkscape:pageopacity="0.0"
     inkscape:pageshadow="2"
     inkscape:zoom="0.7"
     inkscape:cx="345.68208"
     inkscape:cy="187.34331"
     inkscape:document-units="mm"
     inkscape:current-layer="layer1"
     inkscape:document-rotation="0"
     showgrid="false"
     inkscape:window-width="2560"
     inkscape:window-height="1377"
     inkscape:window-x="-8"
     inkscape:window-y="-8"
     inkscape:window-maximized="1" />
  <metadata
     id="metadata5">
    <rdf:RDF>
      <cc:Work
         rdf:about="">
        <dc:format>image/svg+xml</dc:format>
        <dc:type
           rdf:resource="http://purl.org/dc/dcmitype/StillImage" />
        <dc:title></dc:title>
      </cc:Work>
    </rdf:RDF>
  </metadata>
  <g
     inkscape:label="Calque 1"
     inkscape:groupmode="layer"
     id="layer1"
     transform="translate(83.348656,-30.220057)">
    <g
       id="g845"
       clip-path="url(#clipPath849-1)"
       transform="matrix(5.6297743,0,0,-5.6297743,-83.348656,229.69985)">
      <g
         id="g851"
         transform="translate(28.0513,35.3071)">
        <path
           d="M 0,0 V -19.324 C 0,-30.93 -13.973,-35.181 -13.973,-35.181 h -0.009 c 0,0 -13.97,4.251 -13.97,15.857 V 0 Z"
           style="fill:#219ade;fill-opacity:1;fill-rule:nonzero;stroke:none"
           id="path853" />
      </g>
      <g
         id="g855"
         transform="translate(15.9873,10.5381)">
        <path
           d="m 0,0 v 12.29 0.218 h 0.218 8.626 v 3.686 l -8.626,0.01 H 0 V 16.422 22.1 H -3.721 V 16.422 16.204 H -3.94 l -8.625,-0.01 v -3.686 h 8.625 0.219 V 12.29 0.006 C -3.193,0.37 -2.554,0.584 -1.864,0.584 -1.171,0.584 -0.529,0.368 0,0"
           style="fill:#fee303;fill-opacity:1;fill-rule:nonzero;stroke:none"
           id="path857" />
      </g>
      <g
         id="g859"
         transform="translate(17.4224,7.0176)">
        <path
           d="m 0,0 -0.1,0.01 -0.231,0.024 0.039,0.23 c 0.033,0.187 0.049,0.371 0.049,0.563 0,0.881 -0.377,1.674 -0.974,2.233 -0.07,0.065 -0.142,0.128 -0.218,0.186 -0.517,0.4 -1.162,0.641 -1.864,0.641 -0.699,0 -1.342,-0.238 -1.857,-0.634 C -5.232,3.195 -5.305,3.134 -5.375,3.069 -5.979,2.51 -6.359,1.713 -6.359,0.827 c 0,-0.237 0.015,-0.405 0.052,-0.584 l 0.061,-0.285 -0.291,0.022 c -0.082,0.007 -0.164,0.009 -0.251,0.009 -1.685,0 -3.056,-1.371 -3.056,-3.057 0,-0.163 0.011,-0.323 0.035,-0.476 0.383,-0.293 2.507,-1.834 6.458,-3.242 3.621,1.234 6.01,2.927 6.427,3.234 0.025,0.152 0.038,0.311 0.038,0.484 C 3.114,-1.405 1.687,0 0,0"
           style="fill:#40b93c;fill-opacity:1;fill-rule:nonzero;stroke:none"
           id="path861" />
      </g>
      <g
         id="g863"
         transform="translate(27.9326,15.9712)">
        <path
           d="m 0,0 c 0,-5.853 -3.637,-9.84 -7.193,-12.341 0.01,0.105 0.015,0.211 0.015,0.319 0,1.807 -1.521,3.287 -3.332,3.287 l -0.076,0.007 c 0.034,0.199 0.051,0.397 0.051,0.602 0,1.018 -0.464,1.928 -1.192,2.529 V 6.856 h 8.844 v 4.123 l -8.844,0.01 v 5.895 h -4.158 v -5.895 l -8.844,-0.01 V 6.856 h 8.844 V -5.59 c -0.734,-0.601 -1.203,-1.514 -1.203,-2.536 0,-0.224 0.013,-0.416 0.058,-0.629 -0.088,0.006 -0.175,0.008 -0.268,0.008 -1.809,0 -3.275,-1.468 -3.275,-3.275 0,-0.099 0.004,-0.196 0.012,-0.292 -3.543,2.502 -7.153,6.482 -7.153,12.314 V 19.242 H 0 Z m -11.727,10.771 8.625,-0.01 V 7.075 h -8.625 -0.218 V 6.856 -5.433 c -0.53,0.368 -1.171,0.584 -1.865,0.584 -0.689,0 -1.328,-0.214 -1.857,-0.578 V 6.856 7.075 h -0.218 -8.625 v 3.686 l 8.625,0.01 h 0.218 v 0.218 5.678 h 3.722 v -5.678 -0.218 z m -8.627,-22.793 c 0,1.687 1.371,3.058 3.056,3.058 0.087,0 0.169,-0.002 0.251,-0.009 l 0.291,-0.023 -0.061,0.286 c -0.037,0.178 -0.052,0.347 -0.052,0.584 0,0.885 0.38,1.682 0.984,2.241 0.07,0.065 0.143,0.127 0.218,0.185 0.516,0.395 1.159,0.634 1.857,0.634 0.703,0 1.348,-0.241 1.865,-0.642 0.075,-0.058 0.148,-0.12 0.218,-0.186 0.597,-0.559 0.974,-1.352 0.974,-2.232 0,-0.192 -0.017,-0.377 -0.049,-0.563 l -0.039,-0.23 0.231,-0.025 0.1,-0.01 c 1.687,0 3.114,-1.405 3.114,-3.068 0,-0.173 -0.013,-0.332 -0.039,-0.483 -0.019,-0.015 -0.047,-0.035 -0.075,-0.055 -1.768,-1.202 -3.488,-2.038 -4.7,-2.553 -0.518,-0.216 -1.066,-0.428 -1.651,-0.627 -0.887,0.316 -1.676,0.638 -2.379,0.952 -1.156,0.531 -2.606,1.292 -4.081,2.308 -0.022,0.148 -0.033,0.302 -0.033,0.458 m -7.579,31.484 V 0 c 0,-6.178 3.93,-10.287 7.636,-12.788 0.419,-0.305 1.437,-0.99 3.073,-1.785 1.939,-0.965 3.361,-1.398 3.361,-1.398 h 0.009 c 0,0 1.354,0.412 3.221,1.328 0.683,0.334 1.272,0.657 1.761,0.944 4.048,2.359 9.09,6.701 9.09,13.699 v 19.462 z"
           style="fill:#4f4c4d;fill-opacity:1;fill-rule:nonzero;stroke:none"
           id="path865" />
      </g>
    </g>
  </g>
</svg>
