<?xml version="1.0" encoding="UTF-8"?>
<svg version="1.1" viewBox="0 0 520 640" xml:space="preserve" xmlns="http://www.w3.org/2000/svg"><g transform="translate(-2.9465 -3.7168)"><path d="m513.23 280.14 1.4394-266.69h-503.44l1.4394 266.69c3.4873 142.43 78.195 278.99 250.28 353.54 172.09-74.554 246.79-211.11 250.28-353.54z" fill="#fcdb00" stroke="#000" stroke-linecap="square" stroke-miterlimit="30" stroke-width="7"/><path d="m93.874 67.375v27.869h2.916 2.8496 82.113v-27.869h-16.002v14.918h-7.9551v-14.918h-16.004v14.918h-7.9551v-14.918h-16.004v14.918h-7.9531v-14.918h-16.006zm252.68 0v27.869h2.916 2.8476 76.35 2.8496 2.916v-27.869h-16.004v14.918h-7.9551v-14.918h-16.002v14.918h-7.957v-14.918h-16.002v14.918h-7.9551v-14.918h-16.004zm-246.91 30.717v93.166h76.35v-93.166h-76.35zm252.68 0v93.166h76.35v-93.166h-76.35zm-169.53 6.9824v14.918h-3.9473v8.3418h170.63v-8.3418h-3.9473v-14.918h-16.002v14.918h-13.344v-14.918h-16.004v14.918h-13.344v-14.918h-16.002v14.918h-6.6699-6.6719v-14.918h-16.006v14.918h-13.342v-14.918h-16.004v14.918h-13.344v-14.918h-16.004zm-53.752 9.0879h13.223v20.545h-13.223v-20.545zm257.02 0h13.223v20.545h-13.223v-20.545zm-207.21 17.02v60.076h68.012v-18.104c0-8.389 7.7464-15.189 17.305-15.189 9.5583 0 17.305 6.8004 17.305 15.189v18.104h68.01v-60.076h-170.63zm15.461 18.715h13.223v20.545h-13.223v-20.545zm126.49 0h13.223v20.545h-13.223v-20.545zm-226.91 44.209v25.699h82.115v-25.699h-82.115zm84.963 0v25.699h68.012v-25.699h-68.012zm102.62 0v25.699h68.01v-25.699h-68.01zm70.857 0v25.699h82.115v-25.699h-0.00196-82.113zm-258.44 97.27v27.869h2.916 2.8496 82.113v-27.869h-16.002v14.918h-7.9551v-14.918h-16.004v14.918h-7.9551v-14.918h-16.004v14.918h-7.9531v-14.918h-16.006zm252.68 0v27.869h2.916 2.8476 76.35 2.8496 2.916v-27.869h-16.004v14.918h-7.9551v-14.918h-16.002v14.918h-7.957v-14.918h-16.002v14.918h-7.9551v-14.918h-16.004zm-246.91 30.717v93.166h76.35v-93.166h-76.35zm252.68 0v93.166h76.35v-93.166h-76.35zm-169.53 6.9824v14.918h-3.9473v8.3418h170.63v-8.3418h-3.9473v-14.918h-16.002v14.918h-13.344v-14.918h-16.004v14.918h-13.344v-14.918h-16.002v14.918h-6.6699-6.6719v-14.918h-16.006v14.918h-13.342v-14.918h-16.004v14.918h-13.344v-14.918h-16.004zm-53.752 9.0879h13.223v20.545h-13.223v-20.545zm257.02 0h13.223v20.545h-13.223v-20.545zm-207.21 17.02v60.076h68.012v-18.104c0-8.389 7.7464-15.189 17.305-15.189 9.5583 0 17.305 6.8004 17.305 15.189v18.104h68.01v-60.076h-170.63zm15.461 18.715h13.223v20.545h-13.223v-20.545zm126.49 0h13.223v20.545h-13.223v-20.545zm-226.91 44.209v25.699h82.115v-25.699h-82.115zm84.963 0v25.699h68.012v-25.699h-68.012zm102.62 0v25.699h68.01v-25.699h-68.01zm70.857 0v25.699h82.115v-25.699h-0.00196-82.113z" stroke-width=".81368"/></g></svg>
