<?xml version="1.0" encoding="UTF-8" standalone="no"?>
<!-- Created with Inkscape (http://www.inkscape.org/) -->

<svg
   xmlns:dc="http://purl.org/dc/elements/1.1/"
   xmlns:cc="http://creativecommons.org/ns#"
   xmlns:rdf="http://www.w3.org/1999/02/22-rdf-syntax-ns#"
   xmlns:svg="http://www.w3.org/2000/svg"
   xmlns="http://www.w3.org/2000/svg"
   xmlns:sodipodi="http://sodipodi.sourceforge.net/DTD/sodipodi-0.dtd"
   xmlns:inkscape="http://www.inkscape.org/namespaces/inkscape"
   width="42.500114mm"
   height="48.000076mm"
   viewBox="0 0 150.59096 170.07901"
   id="svg2"
   version="1.1"
   inkscape:version="0.91 r13725"
   sodipodi:docname="admin_yverdon.svg">
  <defs
     id="defs4" />
  <sodipodi:namedview
     id="base"
     pagecolor="#ffffff"
     bordercolor="#666666"
     borderopacity="1.0"
     inkscape:pageopacity="0.0"
     inkscape:pageshadow="2"
     inkscape:zoom="1.4"
     inkscape:cx="196.32285"
     inkscape:cy="-13.742795"
     inkscape:document-units="px"
     inkscape:current-layer="layer1"
     showgrid="false"
     inkscape:window-width="1920"
     inkscape:window-height="1178"
     inkscape:window-x="2552"
     inkscape:window-y="-8"
     inkscape:window-maximized="1"
     fit-margin-top="0"
     fit-margin-left="0"
     fit-margin-right="0"
     fit-margin-bottom="0" />
  <metadata
     id="metadata7">
    <rdf:RDF>
      <cc:Work
         rdf:about="">
        <dc:format>image/svg+xml</dc:format>
        <dc:type
           rdf:resource="http://purl.org/dc/dcmitype/StillImage" />
        <dc:title></dc:title>
      </cc:Work>
    </rdf:RDF>
  </metadata>
  <g
     inkscape:label="Calque 1"
     inkscape:groupmode="layer"
     id="layer1"
     transform="translate(-67.561621,-75.89411)">
    <g
       transform="matrix(1.25,0,0,-1.25,66.636329,246.86911)"
       inkscape:label="ink_ext_XXXXXX"
       id="g4144">
      <g
         transform="scale(0.1,0.1)"
         id="g4146">
        <path
           inkscape:connector-curvature="0"
           id="path4148"
           style="fill:#ffffff;fill-opacity:1;fill-rule:nonzero;stroke:none"
           d="m 7.40234,1367.8 1204.72766,0 0,-1360.63203 -1204.72766,0 0,1360.63203" />
        <path
           inkscape:connector-curvature="0"
           id="path4150"
           style="fill:#009b7b;fill-opacity:1;fill-rule:nonzero;stroke:none"
           d="m 28.6641,1346.54 1162.2059,0 0,-1318.1142 -1162.2059,0 0,1318.1142" />
        <path
           inkscape:connector-curvature="0"
           id="path4152"
           style="fill:#ffffff;fill-opacity:1;fill-rule:nonzero;stroke:none"
           d="m 71.1797,666.223 1077.1703,0 0,-595.2777 -1077.1703,0 0,595.2777" />
        <path
           inkscape:connector-curvature="0"
           id="path4154"
           style="fill:#ffffff;fill-opacity:1;fill-rule:nonzero;stroke:none"
           d="m 244.246,708.742 -173.0624,0 -0.0039,32.293 c 7.5273,0.945 15.3984,1.485 23.7305,1.485 59.3948,0 95.3828,-27.407 149.3358,-33.778 z m 343.285,0 -298.664,0 c 53.953,6.371 89.942,33.778 149.332,33.778 59.395,0 95.383,-27.407 149.332,-33.778 z m 343.289,0 -298.664,0 c 53.953,6.371 89.942,33.778 149.332,33.778 59.391,0 95.379,-27.407 149.332,-33.778 z m 217.53,32.313 0,-32.313 -172.905,0 c 53.945,6.371 89.945,33.778 149.335,33.778 8.27,0 16.09,-0.532 23.57,-1.465 z m 0,121.679 0,-45.394 c -7.48,0.933 -15.3,1.465 -23.57,1.465 -67.21,0 -104.44,-35.09 -171.647,-35.09 -67.203,0 -104.442,35.09 -171.645,35.09 -67.203,0 -104.441,-35.09 -171.644,-35.09 -67.203,0 -104.442,35.09 -171.645,35.09 -67.203,0 -104.441,-35.09 -171.644,-35.09 -67.203,0 -104.442,35.09 -171.6448,35.09 -8.3321,0 -16.2032,-0.539 -23.7305,-1.485 l 0,45.395 c 7.5273,0.922 15.3984,1.453 23.7305,1.453 67.2028,0 104.4418,-34.328 171.6448,-34.328 67.203,0 104.441,34.328 171.644,34.328 67.203,0 104.442,-34.328 171.645,-34.328 67.203,0 104.441,34.328 171.644,34.328 67.203,0 104.442,-34.328 171.645,-34.328 67.207,0 104.437,34.328 171.647,34.328 8.27,0 16.09,-0.52 23.57,-1.434 z m 0,121.789 0,-45.503 c -7.48,0.91 -15.3,1.433 -23.57,1.433 -67.21,0 -104.44,-34.328 -171.647,-34.328 -67.203,0 -104.442,34.328 -171.645,34.328 -67.203,0 -104.441,-34.328 -171.644,-34.328 -67.203,0 -104.442,34.328 -171.645,34.328 -67.203,0 -104.441,-34.328 -171.644,-34.328 -67.203,0 -104.442,34.328 -171.6448,34.328 -8.3321,0 -16.2032,-0.527 -23.7305,-1.453 l 0,45.504 c 7.5273,0.906 15.3984,1.422 23.7305,1.422 67.2028,0 104.4418,-33.567 171.6448,-33.567 67.203,0 104.441,33.567 171.644,33.567 67.203,0 104.442,-33.567 171.645,-33.567 67.203,0 104.441,33.567 171.644,33.567 67.203,0 104.442,-33.567 171.645,-33.567 67.207,0 104.437,33.567 171.647,33.567 8.27,0 16.09,-0.508 23.57,-1.403 z m 0,121.677 0,-45.39 c -7.48,0.89 -15.3,1.4 -23.57,1.4 -67.21,0 -104.44,-33.57 -171.647,-33.57 -67.203,0 -104.442,33.57 -171.645,33.57 -67.203,0 -104.441,-33.57 -171.644,-33.57 -67.203,0 -104.442,33.57 -171.645,33.57 -67.203,0 -104.441,-33.57 -171.644,-33.57 -67.203,0 -104.442,33.57 -171.6448,33.57 -8.3321,0 -16.2032,-0.51 -23.7305,-1.42 l 0,45.39 c 7.5273,0.89 15.3984,1.39 23.7305,1.39 67.2028,0 104.4418,-32.8 171.6448,-32.8 67.203,0 104.441,32.8 171.644,32.8 67.203,0 104.442,-32.8 171.645,-32.8 67.203,0 104.441,32.8 171.644,32.8 67.203,0 104.442,-32.8 171.645,-32.8 67.207,0 104.437,32.8 171.647,32.8 8.27,0 16.09,-0.5 23.57,-1.37 z m 0,121.68 0,-45.39 c -7.48,0.87 -15.3,1.37 -23.57,1.37 -67.21,0 -104.44,-32.81 -171.647,-32.81 -67.203,0 -104.442,32.81 -171.645,32.81 -67.203,0 -104.441,-32.81 -171.644,-32.81 -67.203,0 -104.442,32.81 -171.645,32.81 -67.203,0 -104.441,-32.81 -171.644,-32.81 -67.203,0 -104.442,32.81 -171.6448,32.81 -8.3321,0 -16.2032,-0.5 -23.7305,-1.39 l 0,45.39 c 7.5273,0.87 15.3984,1.36 23.7305,1.36 67.2028,0 104.4418,-32.04 171.6448,-32.04 67.203,0 104.441,32.04 171.644,32.04 67.203,0 104.442,-32.04 171.645,-32.04 67.203,0 104.441,32.04 171.644,32.04 67.203,0 104.442,-32.04 171.645,-32.04 67.207,0 104.437,32.04 171.647,32.04 8.27,0 16.09,-0.49 23.57,-1.34 z m -341.998,76.14 293.558,0 c -52.54,-6.32 -88.33,-30.56 -146.777,-30.56 -58.449,0 -94.235,24.24 -146.781,30.56 z m -343.289,0 293.562,0 c -52.547,-6.32 -88.332,-30.56 -146.781,-30.56 -58.449,0 -94.235,24.24 -146.781,30.56 z m -343.286,0 293.559,0 c -52.547,-6.32 -88.332,-30.56 -146.781,-30.56 -58.45,0 -94.235,24.24 -146.778,30.56" />
        <path
           inkscape:connector-curvature="0"
           id="path4156"
           style="fill:#009b7b;fill-opacity:1;fill-rule:nonzero;stroke:none"
           d="m 131.715,188.039 31.238,0 0,157.082 -31.238,0 0,-157.082" />
        <path
           inkscape:connector-curvature="0"
           id="path4158"
           style="fill:#009b7b;fill-opacity:1;fill-rule:evenodd;stroke:none"
           d="m 295.398,237.32 c 2.2,34.981 -16.503,67.543 -55.222,67.543 -34.539,0 -58.078,-25.965 -58.078,-60.062 0,-35.199 22.218,-59.84 58.078,-59.84 25.742,0 44.441,11.437 53.242,38.281 l -27.5,0 c -1.98,-7.039 -12.102,-14.742 -24.641,-14.742 -17.382,0 -27.058,9.023 -27.937,28.82 l 82.058,0 z m -82.058,19.801 c 0.437,8.801 6.156,24.199 25.957,24.199 15.18,0 22,-8.359 24.859,-24.199 l -50.816,0" />
        <path
           inkscape:connector-curvature="0"
           id="path4160"
           style="fill:#009b7b;fill-opacity:1;fill-rule:nonzero;stroke:none"
           d="m 308.395,225 c 1.32,-30.137 27.058,-40.039 53.46,-40.039 25.958,0 51.918,9.68 51.918,39.602 0,21.117 -17.816,27.718 -36.082,31.898 -17.816,4.18 -35.418,5.723 -35.418,16.941 0,9.239 10.34,10.559 17.379,10.559 11.223,0 20.461,-3.301 21.34,-15.402 l 29.703,0 c -2.422,27.941 -25.3,36.304 -50.16,36.304 -24.422,0 -49.5,-7.484 -49.5,-36.519 0,-20.02 18.039,-26.406 36.078,-30.364 22.442,-4.839 35.422,-8.136 35.422,-17.597 0,-11.004 -11.441,-14.524 -20.461,-14.524 -12.32,0 -23.761,5.504 -23.98,19.141 l -29.699,0" />
        <path
           inkscape:connector-curvature="0"
           id="path4162"
           style="fill:#009b7b;fill-opacity:1;fill-rule:nonzero;stroke:none"
           d="m 431.805,234.684 66.222,0 0,26.836 -66.222,0 0,-26.836" />
        <path
           inkscape:connector-curvature="0"
           id="path4164"
           style="fill:#009b7b;fill-opacity:1;fill-rule:evenodd;stroke:none"
           d="m 559.43,258 37.621,0 c 14.738,0 24.859,-6.379 24.859,-22.437 0,-16.282 -11.883,-20.684 -25.519,-20.684 l -36.961,0 0,43.121 z m -34.539,-69.961 76.117,0 c 28.383,0 55.445,13.641 55.445,45.543 0,19.578 -9.683,34.32 -28.824,39.82 13.644,6.598 21.34,17.379 21.34,32.778 0,29.261 -20.239,38.941 -50.16,38.941 l -73.918,0 0,-157.082 z m 34.539,130.242 32.34,0 c 12.32,0 23.761,-3.078 23.761,-18.043 0,-13.199 -9.019,-18.695 -21.121,-18.695 l -34.98,0 0,36.738" />
        <path
           inkscape:connector-curvature="0"
           id="path4166"
           style="fill:#009b7b;fill-opacity:1;fill-rule:evenodd;stroke:none"
           d="m 747.301,232.039 c 0,-6.816 -0.883,-26.18 -25.301,-26.18 -10.121,0 -19.145,2.86 -19.145,14.524 0,11.437 8.805,14.738 18.481,16.719 9.684,1.761 20.684,1.98 25.965,6.601 l 0,-11.664 z m -40.922,34.762 c 1.101,12.32 8.797,17.16 20.68,17.16 11,0 20.242,-1.981 20.242,-15.402 0,-12.758 -17.824,-12.098 -36.965,-14.957 -19.359,-2.641 -38.719,-8.801 -38.719,-34.539 0,-23.321 17.16,-34.102 38.719,-34.102 13.859,0 28.383,3.742 38.281,14.082 0.219,-3.742 1.098,-7.48 2.199,-11.004 l 31.68,0 c -2.859,4.621 -3.957,14.961 -3.957,25.305 l 0,59.179 c 0,27.278 -27.281,32.34 -49.941,32.34 -25.52,0 -51.7,-8.804 -53.457,-38.062 l 31.238,0" />
        <path
           inkscape:connector-curvature="0"
           id="path4168"
           style="fill:#009b7b;fill-opacity:1;fill-rule:evenodd;stroke:none"
           d="m 803.637,188.039 31.238,0 0,113.742 -31.238,0 0,-113.742 z m 31.238,157.082 -31.238,0 0,-25.742 31.238,0 0,25.742" />
        <path
           inkscape:connector-curvature="0"
           id="path4170"
           style="fill:#009b7b;fill-opacity:1;fill-rule:nonzero;stroke:none"
           d="m 859.516,188.039 31.242,0 0,59.621 c 0,23.102 7.262,32.563 24.199,32.563 14.52,0 20.02,-9.243 20.02,-27.942 l 0,-64.242 31.242,0 0,69.961 c 0,28.16 -8.36,46.863 -41.582,46.863 -13.199,0 -26.84,-6.16 -34.758,-18.922 l -0.66,0 0,15.84 -29.703,0 0,-113.742" />
        <path
           inkscape:connector-curvature="0"
           id="path4172"
           style="fill:#009b7b;fill-opacity:1;fill-rule:nonzero;stroke:none"
           d="m 984.469,225 c 1.32,-30.137 27.061,-40.039 53.461,-40.039 25.96,0 51.92,9.68 51.92,39.602 0,21.117 -17.82,27.718 -36.08,31.898 -17.82,4.18 -35.42,5.723 -35.42,16.941 0,9.239 10.34,10.559 17.38,10.559 11.22,0 20.46,-3.301 21.34,-15.402 l 29.7,0 c -2.42,27.941 -25.3,36.304 -50.16,36.304 -24.42,0 -49.501,-7.484 -49.501,-36.519 0,-20.02 18.041,-26.406 36.081,-30.364 22.44,-4.839 35.42,-8.136 35.42,-17.597 0,-11.004 -11.44,-14.524 -20.46,-14.524 -12.32,0 -23.76,5.504 -23.98,19.141 l -29.701,0" />
        <path
           inkscape:connector-curvature="0"
           id="path4174"
           style="fill:#009b7b;fill-opacity:1;fill-rule:nonzero;stroke:none"
           d="m 174.832,408.039 34.543,0 0,60.285 58.301,96.797 -38.5,0 -36.52,-62.039 -36.742,62.039 -38.941,0 57.859,-95.918 0,-61.164" />
        <path
           inkscape:connector-curvature="0"
           id="path4176"
           style="fill:#009b7b;fill-opacity:1;fill-rule:nonzero;stroke:none"
           d="m 371.445,521.781 -31.023,0 -23.977,-77.66 -0.441,0 -23.977,77.66 -32.781,0 38.942,-113.742 34.757,0 38.5,113.742" />
        <path
           inkscape:connector-curvature="0"
           id="path4178"
           style="fill:#009b7b;fill-opacity:1;fill-rule:evenodd;stroke:none"
           d="m 496.672,457.32 c 2.199,34.981 -16.504,67.543 -55.223,67.543 -34.539,0 -58.078,-25.965 -58.078,-60.062 0,-35.199 22.223,-59.84 58.078,-59.84 25.742,0 44.442,11.437 53.242,38.281 l -27.5,0 c -1.98,-7.039 -12.101,-14.742 -24.64,-14.742 -17.383,0 -27.059,9.023 -27.938,28.82 l 82.059,0 z m -82.059,19.801 c 0.438,8.801 6.16,24.199 25.957,24.199 15.18,0 22.004,-8.359 24.86,-24.199 l -50.817,0" />
        <path
           inkscape:connector-curvature="0"
           id="path4180"
           style="fill:#009b7b;fill-opacity:1;fill-rule:nonzero;stroke:none"
           d="m 519.68,408.039 31.238,0 0,51.262 c 0,20.019 7.918,36.523 30.801,36.523 3.738,0 8.359,-0.441 11.219,-1.101 l 0,29.039 c -1.977,0.66 -4.618,1.101 -6.817,1.101 -15.18,0 -30.582,-9.902 -36.305,-24.203 l -0.437,0 0,21.121 -29.699,0 0,-113.742" />
        <path
           inkscape:connector-curvature="0"
           id="path4182"
           style="fill:#009b7b;fill-opacity:1;fill-rule:evenodd;stroke:none"
           d="m 686.961,408.039 29.703,0 0,157.082 -31.242,0 0,-57.203 -0.438,0 0.215,0 c -7.258,11.223 -20.457,16.945 -33.875,16.945 -33.445,0 -50.383,-28.383 -50.383,-58.961 0,-31.464 16.723,-60.941 51.043,-60.941 14.52,0 27.278,5.277 34.539,17.598 l 0.438,0 0,-14.52 z m -0.438,57.199 c 0,-18.695 -6.16,-36.738 -26.839,-36.738 -19.364,0 -27.5,18.699 -27.5,36.523 0,18.696 7.039,36.297 27.5,36.297 20.242,0 26.839,-17.601 26.839,-36.082" />
        <path
           inkscape:connector-curvature="0"
           id="path4184"
           style="fill:#009b7b;fill-opacity:1;fill-rule:evenodd;stroke:none"
           d="m 741.16,464.801 c 0,-36.082 23.102,-59.84 58.738,-59.84 35.864,0 58.961,23.758 58.961,59.84 0,36.301 -23.097,60.062 -58.961,60.062 -35.636,0 -58.738,-23.761 -58.738,-60.062 z m 31.238,0 c 0,18.262 6.383,36.519 27.5,36.519 21.34,0 27.723,-18.257 27.723,-36.519 0,-18.039 -6.383,-36.301 -27.723,-36.301 -21.117,0 -27.5,18.262 -27.5,36.301" />
        <path
           inkscape:connector-curvature="0"
           id="path4186"
           style="fill:#009b7b;fill-opacity:1;fill-rule:nonzero;stroke:none"
           d="m 883.578,408.039 31.238,0 0,59.621 c 0,23.102 7.262,32.563 24.204,32.563 14.519,0 20.019,-9.243 20.019,-27.942 l 0,-64.242 31.238,0 0,69.961 c 0,28.16 -8.359,46.863 -41.578,46.863 -13.203,0 -26.84,-6.16 -34.761,-18.922 l -0.661,0 0,15.84 -29.699,0 0,-113.742" />
        <path
           inkscape:connector-curvature="0"
           id="path4188"
           style="fill:#009b7b;fill-opacity:1;fill-rule:nonzero;stroke:none"
           d="m 1018.32,454.684 66.22,0 0,26.836 -66.22,0 0,-26.836" />
      </g>
    </g>
  </g>
</svg>
