<?xml version="1.0" encoding="UTF-8" standalone="no"?>
<svg
   xmlns:dc="http://purl.org/dc/elements/1.1/"
   xmlns:cc="http://creativecommons.org/ns#"
   xmlns:rdf="http://www.w3.org/1999/02/22-rdf-syntax-ns#"
   xmlns:svg="http://www.w3.org/2000/svg"
   xmlns="http://www.w3.org/2000/svg"
   xmlns:xlink="http://www.w3.org/1999/xlink"
   xmlns:sodipodi="http://sodipodi.sourceforge.net/DTD/sodipodi-0.dtd"
   xmlns:inkscape="http://www.inkscape.org/namespaces/inkscape"
   height="763"
   width="603"
   version="1.0"
   id="svg20"
   sodipodi:version="0.32"
   inkscape:version="0.46"
   sodipodi:docname="Chavornay-coat_of_arms.svg"
   sodipodi:docbase="C:\Documents and Settings\Steve\Bureau\Blason Villages Suisse pour Wikipédia (par Delta-9)"
   inkscape:output_extension="org.inkscape.output.svg.inkscape">
  <metadata
     id="metadata31">
    <rdf:RDF>
      <cc:Work
         rdf:about="">
        <dc:format>image/svg+xml</dc:format>
        <dc:type
           rdf:resource="http://purl.org/dc/dcmitype/StillImage" />
        <dc:date>07-AUG-2006</dc:date>
        <dc:creator>
          <cc:Agent>
            <dc:title>Jérôme BLUM (wagner51)</dc:title>
          </cc:Agent>
        </dc:creator>
        <cc:license
           rdf:resource="http://creativecommons.org/licenses/GPL/2.0/" />
        <dc:coverage />
        <dc:description>Gabarit pour le Projet:Blasons de WIkipédia</dc:description>
        <dc:subject>
          <rdf:Bag>
            <rdf:li>blason suisse modèle gabarit projet blasons</rdf:li>
          </rdf:Bag>
        </dc:subject>
        <dc:language>fr</dc:language>
        <dc:title>Gabrit d'un blason suisse</dc:title>
      </cc:Work>
      <cc:License
         rdf:about="http://creativecommons.org/licenses/GPL/2.0/">
        <cc:permits
           rdf:resource="http://web.resource.org/cc/Reproduction" />
        <cc:permits
           rdf:resource="http://web.resource.org/cc/Distribution" />
        <cc:requires
           rdf:resource="http://web.resource.org/cc/Notice" />
        <cc:permits
           rdf:resource="http://web.resource.org/cc/DerivativeWorks" />
        <cc:requires
           rdf:resource="http://web.resource.org/cc/ShareAlike" />
        <cc:requires
           rdf:resource="http://web.resource.org/cc/SourceCode" />
      </cc:License>
    </rdf:RDF>
  </metadata>
  <defs
     id="defs29"><inkscape:perspective
   sodipodi:type="inkscape:persp3d"
   inkscape:vp_x="0 : 381.5 : 1"
   inkscape:vp_y="0 : 1000 : 0"
   inkscape:vp_z="603 : 381.5 : 1"
   inkscape:persp3d-origin="301.5 : 254.33333 : 1"
   id="perspective28" />
<linearGradient
   id="linearGradient2893">
  <stop
     style="stop-color:#ffffff;stop-opacity:0.3137255;"
     offset="0"
     id="stop2895" />
  <stop
     id="stop2897"
     offset="0.19"
     style="stop-color:#ffffff;stop-opacity:0.25098041;" />
  <stop
     style="stop-color:#6b6b6b;stop-opacity:0.1254902;"
     offset="0.60000002"
     id="stop2901" />
  <stop
     style="stop-color:#000000;stop-opacity:0.1254902;"
     offset="1"
     id="stop2899" />
</linearGradient>
<linearGradient
   id="linearGradient2955">
  <stop
     style="stop-color:white;stop-opacity:0;"
     offset="0"
     id="stop2965" />
  <stop
     style="stop-color:black;stop-opacity:0.64583331;"
     offset="1"
     id="stop2959" />
</linearGradient>
<radialGradient
   inkscape:collect="always"
   xlink:href="#linearGradient2893"
   id="radialGradient3236"
   gradientUnits="userSpaceOnUse"
   gradientTransform="matrix(1.215027,1.531577e-24,1.464684e-23,1.266667,-839.1924,-490.4894)"
   cx="858.04236"
   cy="579.93323"
   fx="858.04236"
   fy="579.93323"
   r="300" />
<inkscape:perspective
   id="perspective2712"
   inkscape:persp3d-origin="297.63751 : 280.63 : 1"
   inkscape:vp_z="595.27502 : 420.94501 : 1"
   inkscape:vp_y="0 : 1000 : 0"
   inkscape:vp_x="0 : 420.94501 : 1"
   sodipodi:type="inkscape:persp3d" />

	
	

	
	

		
		
		
		
		
		
		
		
	
		
	
			
			
			
		
			
				
			
			
			
				
			
				
			
			
			
			
			
			
			
				
			
				
		
			
		
			
		
			
		
			
			
			
		
			
		
			
			
		
				
				
				
					
			
				
				
				
					
			
				
				
				
					
			
				
				
				
				
				
			
				
					
				
					
				
					
				
					
				
					
			
				
				
				
				
				
			
					
						
					
					
				</defs>
  <sodipodi:namedview
     inkscape:window-height="968"
     inkscape:window-width="1280"
     inkscape:pageshadow="2"
     inkscape:pageopacity="0.0"
     guidetolerance="10.0"
     gridtolerance="10.0"
     objecttolerance="10.0"
     borderopacity="1.0"
     bordercolor="#666666"
     pagecolor="#ffffff"
     id="base"
     inkscape:zoom="0.92652193"
     inkscape:cx="173.53758"
     inkscape:cy="399.00713"
     inkscape:window-x="1280"
     inkscape:window-y="22"
     inkscape:current-layer="layer2"
     showgrid="false"
     showguides="true"
     inkscape:guide-bbox="true">
    <sodipodi:guide
       orientation="horizontal"
       position="761.5"
       id="guide1885" />
    <sodipodi:guide
       orientation="vertical"
       position="1.5"
       id="guide1887" />
    <sodipodi:guide
       orientation="horizontal"
       position="1.5"
       id="guide1889" />
    <sodipodi:guide
       orientation="vertical"
       position="601.5"
       id="guide1891" />
    <sodipodi:guide
       orientation="vertical"
       position="301.50081"
       id="guide1893" />
  </sodipodi:namedview>
  <desc
     id="desc22">Coat of Arms of Canton of Freiburg (Fribourg)</desc>
  <g
     inkscape:groupmode="layer"
     id="layer1"
     inkscape:label="Fond écu"
     style="opacity:1;display:inline"
     sodipodi:insensitive="true">
    <path
       d="M 1.5,1.5 L 1.5,460.372 C 1.5,626.683 135.814,761.503 301.5,761.503 C 467.188,761.503 601.5,626.683 601.5,460.372 L 601.5,1.5 L 1.5,1.5 z"
       id="path3357"
       style="opacity:1;fill:#ffffff;display:inline" />
    <path
       d="M 301.496,761.496 C 467.184,761.496 601.496,626.676 601.496,460.365 L 601.496,1.5 L 301.496,1.5 L 301.496,761.496 L 301.496,761.496 z"
       id="path3359"
       style="opacity:1;fill:#e20909;display:inline" />
  </g>
  <g
     inkscape:groupmode="layer"
     id="layer2"
     inkscape:label="Meubles"
     style="opacity:1;display:inline"
     sodipodi:insensitive="true">
    <line
       style="fill:none;stroke:#000000;stroke-width:3"
       id="line2631"
       x1="301.496"
       y1="1.5000004"
       x2="301.496"
       y2="761.49597" />
    <g
       id="g3076">
      <polygon
         transform="translate(-3.8e-2,-4.8e-2)"
         style="fill:#fcef3c;stroke:#000000;stroke-width:3;stroke-linecap:round;stroke-linejoin:round"
         points="412.065,473.292 191.009,473.292 100.108,509.144 207.306,533.046 395.769,533.046 502.966,509.144 412.065,473.292 "
         id="polygon2589" />
      <path
         style="fill:#fcef3c;stroke:#000000;stroke-width:3;stroke-linecap:round;stroke-linejoin:round"
         d="M 508.049,508.723 C 507.56,506.372 505.259,504.865 502.908,505.354 C 502.908,505.354 395.883,527.023 395.012,527.205 L 207.985,527.205 C 207.115,527.023 100.089,505.354 100.089,505.354 C 97.739,504.865 95.438,506.373 94.948,508.723 C 94.459,511.073 95.967,513.374 98.317,513.864 L 206.651,535.805 C 206.943,535.866 207.239,535.896 207.537,535.896 L 395.46,535.896 C 395.758,535.896 396.054,535.866 396.346,535.805 L 504.68,513.864 C 507.03,513.374 508.538,511.073 508.049,508.723 z"
         id="path2591" />
      <path
         style="fill:#fcef3c;stroke:#000000;stroke-width:3;stroke-linecap:round;stroke-linejoin:round"
         d="M 453.487,335.806 C 431.939,322.588 381.962,298.182 301.496,298.182 C 221.03,298.182 171.052,322.587 149.504,335.806 C 130.492,347.469 123.249,349.025 112.746,349.025 L 113.433,365.322 C 151.406,352.013 154.665,335.444 202.47,320.234 C 239.005,308.609 272.756,305.872 290.286,305.225 C 290.286,329.055 276.802,338.161 276.802,338.161 L 326.192,338.161 C 326.192,338.161 312.709,329.055 312.708,305.225 C 330.238,305.871 363.989,308.609 400.524,320.234 C 448.329,335.444 451.587,352.013 489.561,365.322 L 490.248,349.025 C 479.743,349.025 472.499,347.469 453.487,335.806 z"
         id="path2595" />
      <path
         id="path2601"
         d="M 528.496,205.251 C 512.652,224.083 490.924,227.614 483.047,247.441 C 475.634,266.102 480.603,294.159 491.195,309.641 C 480.602,294.159 463.49,267.812 449.91,267.812 C 433.613,267.812 432.526,293.615 441.218,310.184 C 449.91,326.752 454.256,329.288 454.256,329.288 C 454.256,329.288 456.429,313.535 467.293,313.535 C 478.158,313.535 485.22,325.667 485.22,334.358 C 485.22,343.05 477.615,349.84 472.454,344.679 C 472.454,344.679 473.811,359.889 489.565,365.322 C 505.319,370.754 508.85,358.803 508.85,358.803 L 508.85,315.888 C 508.851,250.972 524.739,224.762 528.496,205.251 z"
         style="fill:#fcef3c;stroke:#000000;stroke-width:3;stroke-linecap:round;stroke-linejoin:round" />
      <path
         id="path2603"
         d="M 452.626,311.814 C 452.626,309.37 447.342,299.204 456.157,293.616 C 462.268,289.742 466.75,297.147 466.75,297.147"
         style="fill:none;stroke:#000000;stroke-width:3;stroke-linecap:round;stroke-linejoin:round" />
      <ellipse
         transform="translate(-3.8e-2,-4.8e-2)"
         id="ellipse2605"
         ry="23.811001"
         rx="10.593"
         cy="330.966"
         cx="508.888"
         sodipodi:cx="508.888"
         sodipodi:cy="330.966"
         sodipodi:rx="10.593"
         sodipodi:ry="23.811001"
         style="fill:#5ab532;stroke:#000000;stroke-width:3;stroke-linecap:round;stroke-linejoin:round" />
      <path
         id="path2609"
         d="M 359.108,227.399 C 340.638,227.399 333.984,241.2 326.559,253.438 C 324.85,256.256 317.868,256.655 317.868,247.006 C 317.868,235.214 338.511,213.418 338.511,192.694 C 338.511,183.761 333.442,172.326 318.593,157.677 C 303.745,143.027 304.831,121.231 301.5,121.231 C 298.169,121.231 299.255,143.027 284.407,157.677 C 269.559,172.326 264.489,183.761 264.489,192.694 C 264.489,213.418 285.132,235.214 285.132,247.006 C 285.132,256.654 278.15,256.256 276.441,253.438 C 269.017,241.2 262.362,227.399 243.892,227.399 C 225.422,227.399 210.348,240.039 210.348,256.654 C 210.348,275.055 228.094,290.063 232.077,302.391 C 237.871,285.239 244.934,275.949 257.609,275.949 C 270.283,275.949 275.716,286.134 275.716,293.279 C 275.716,302.749 263.765,318.827 252.9,311.502 C 255.979,324.544 265.032,335.264 276.802,335.264 C 288.572,335.264 297.407,325.437 301.5,316.683 C 305.594,325.437 314.429,335.264 326.198,335.264 C 337.969,335.264 347.021,324.544 350.099,311.502 C 339.235,318.827 327.284,302.749 327.284,293.279 C 327.284,286.133 332.718,275.949 345.392,275.949 C 358.066,275.949 365.128,285.24 370.923,302.391 C 374.906,290.063 392.652,275.055 392.652,256.654 C 392.652,240.038 377.577,227.399 359.108,227.399 z"
         style="fill:#fcef3c;stroke:#000000;stroke-width:3;stroke-linecap:round;stroke-linejoin:round" />
      <line
         style="fill:none;stroke:#000000;stroke-width:3;stroke-linecap:round;stroke-linejoin:round"
         x1="301.49899"
         y1="316.68298"
         x2="301.49899"
         y2="158.03499"
         id="line2613" />
      <path
         style="fill:none;stroke:#000000;stroke-width:3;stroke-linecap:round;stroke-linejoin:round"
         d="M 231.532,285.418 C 231.532,281.13 224.617,269.76 233.705,259.513 C 243.212,248.793 257.743,259.29 260.867,260.496"
         id="path2615" />
      <path
         style="fill:none;stroke:#000000;stroke-width:3;stroke-linecap:round;stroke-linejoin:round"
         d="M 371.466,285.418 C 371.466,281.13 378.381,269.76 369.293,259.513 C 359.787,248.793 345.256,259.29 342.132,260.496"
         id="path2617" />
      <ellipse
         transform="translate(-3.8e-2,-4.8e-2)"
         id="ellipse2619"
         ry="27.871"
         rx="16.135"
         cy="282.78601"
         cx="301.53699"
         sodipodi:cx="301.53699"
         sodipodi:cy="282.78601"
         sodipodi:rx="16.135"
         sodipodi:ry="27.871"
         style="fill:#2b5df2;stroke:#000000;stroke-width:3;stroke-linecap:round;stroke-linejoin:round" />
      <path
         id="path2623"
         d="M 74.502,205.251 C 90.346,224.083 112.075,227.614 119.952,247.441 C 127.365,266.102 122.397,294.159 111.804,309.641 C 122.397,294.159 139.509,267.812 153.09,267.812 C 169.387,267.812 170.473,293.615 161.781,310.184 C 153.09,326.752 148.743,329.288 148.743,329.288 C 148.743,329.288 146.57,313.535 135.706,313.535 C 124.841,313.535 117.779,325.667 117.779,334.358 C 117.779,343.05 125.384,349.84 130.545,344.679 C 130.545,344.679 129.187,359.889 113.433,365.322 C 97.679,370.754 94.148,358.803 94.148,358.803 L 94.148,315.888 C 94.148,250.972 78.258,224.762 74.502,205.251 z"
         style="fill:#fcef3c;stroke:#000000;stroke-width:3;stroke-linecap:round;stroke-linejoin:round" />
      <path
         id="path2625"
         d="M 150.372,311.814 C 150.372,309.37 155.656,299.204 146.841,293.616 C 140.73,289.742 136.248,297.147 136.248,297.147"
         style="fill:none;stroke:#000000;stroke-width:3;stroke-linecap:round;stroke-linejoin:round" />
      <ellipse
         transform="translate(-3.8e-2,-4.8e-2)"
         id="ellipse2627"
         ry="23.811001"
         rx="10.593"
         cy="330.966"
         cx="94.185997"
         sodipodi:cx="94.185997"
         sodipodi:cy="330.966"
         sodipodi:rx="10.593"
         sodipodi:ry="23.811001"
         style="fill:#5ab532;stroke:#000000;stroke-width:3;stroke-linecap:round;stroke-linejoin:round" />
      <polygon
         transform="translate(-3.8e-2,-4.8e-2)"
         style="fill:#fcef3c;stroke:#000000;stroke-width:3;stroke-linecap:round;stroke-linejoin:round"
         points="411.153,344.184 191.914,344.184 97.392,380.581 97.392,506.066 191.914,469.669 411.153,469.669 505.676,506.066 505.676,380.581 411.153,344.184 "
         id="polygon2631" />
      <path
         style="fill:#fcef3c;stroke:#000000;stroke-width:3;stroke-linecap:round;stroke-linejoin:round"
         d="M 191.876,467.449 C 191.209,467.449 190.547,467.572 189.924,467.812 L 97.354,503.457 C 94.555,504.534 93.159,507.679 94.237,510.478 C 95.315,513.278 98.459,514.673 101.259,513.595 C 101.259,513.595 191.037,479.026 192.886,478.314 C 194.878,478.314 408.12,478.314 410.113,478.314 C 411.962,479.026 501.734,513.593 501.734,513.593 C 504.534,514.67 507.677,513.276 508.755,510.476 C 509.833,507.675 508.438,504.533 505.638,503.454 L 413.075,467.812 C 412.452,467.572 411.79,467.449 411.123,467.449 L 191.876,467.449 L 191.876,467.449 z"
         id="path2635" />
      <path
         style="fill:#fcef3c;stroke:#000000;stroke-width:3;stroke-linecap:round;stroke-linejoin:round"
         d="M 191.876,335.264 C 191.209,335.264 190.547,335.387 189.924,335.627 L 91.056,373.696 C 88.257,374.774 86.861,377.918 87.939,380.718 C 89.017,383.517 92.161,384.913 94.96,383.835 C 94.96,383.835 191.036,346.84 192.885,346.128 C 194.877,346.128 408.119,346.128 410.112,346.128 C 411.961,346.84 508.037,383.835 508.037,383.835 C 510.837,384.913 513.981,383.518 515.058,380.718 C 516.136,377.918 514.742,374.775 511.941,373.696 L 413.074,335.627 C 412.451,335.387 411.789,335.264 411.122,335.264 L 191.876,335.264 z"
         id="path2639" />
      <rect
         style="fill:none;stroke:#000000;stroke-width:3;stroke-linecap:round;stroke-linejoin:round"
         x="207.517"
         y="359.77701"
         width="187.95799"
         height="94.204002"
         id="rect2643" />
      <polygon
         transform="translate(-3.8e-2,-4.8e-2)"
         style="fill:none;stroke:#000000;stroke-width:3;stroke-linecap:round;stroke-linejoin:round"
         points="178.824,457.333 110.482,483.648 110.482,392.918 178.824,366.602 178.824,457.333 "
         id="polygon2645" />
      <polygon
         transform="translate(-3.8e-2,-4.8e-2)"
         style="fill:none;stroke:#000000;stroke-width:3;stroke-linecap:round;stroke-linejoin:round"
         points="424.25,457.333 492.592,483.648 492.592,392.918 424.25,366.602 424.25,457.333 "
         id="polygon2647" />
      <line
         style="fill:none;stroke:#000000;stroke-width:3;stroke-linecap:round;stroke-linejoin:round"
         x1="191.87601"
         y1="467.44901"
         x2="191.87601"
         y2="346.517"
         id="line2649" />
      <line
         style="fill:none;stroke:#000000;stroke-width:3;stroke-linecap:round;stroke-linejoin:round"
         x1="411.11502"
         y1="467.44901"
         x2="411.11502"
         y2="346.51401"
         id="line2651" />
      <path
         style="fill:none;stroke:#000000;stroke-width:3;stroke-linecap:round;stroke-linejoin:round"
         d="M 190.735,335.389 C 190.735,335.389 187.53,340.696 191.876,346.128"
         id="path2653" />
      <path
         style="fill:none;stroke:#000000;stroke-width:3;stroke-linecap:round;stroke-linejoin:round"
         d="M 412.263,335.389 C 412.263,335.389 415.468,340.696 411.122,346.128"
         id="path2655" />
      <path
         style="fill:none;stroke:#000000;stroke-width:3;stroke-linecap:round;stroke-linejoin:round"
         d="M 410.91,478.621 C 410.91,478.621 415.468,472.881 411.122,467.448"
         id="path2657" />
      <path
         style="fill:none;stroke:#000000;stroke-width:3;stroke-linecap:round;stroke-linejoin:round"
         d="M 206.651,535.805 C 206.651,535.805 209.787,532.334 207.985,527.204"
         id="path2659" />
      <path
         style="fill:none;stroke:#000000;stroke-width:3;stroke-linecap:round;stroke-linejoin:round"
         d="M 396.341,535.805 C 396.341,535.805 393.205,532.334 395.007,527.204"
         id="path2661" />
      <path
         style="fill:none;stroke:#000000;stroke-width:3;stroke-linecap:round;stroke-linejoin:round"
         d="M 192.082,478.621 C 192.082,478.621 187.524,472.881 191.87,467.448"
         id="path2663" />
      <line
         style="fill:none;stroke:#000000;stroke-width:3;stroke-linecap:round;stroke-linejoin:round"
         x1="207.985"
         y1="527.20404"
         x2="207.985"
         y2="478.314"
         id="line2665" />
      <line
         style="fill:none;stroke:#000000;stroke-width:3;stroke-linecap:round;stroke-linejoin:round"
         x1="395.013"
         y1="527.20404"
         x2="395.013"
         y2="478.314"
         id="line2667" />
      <path
         id="path2673"
         d="M 152.226,421.391 C 152.226,409.896 148.839,401.861 144.661,403.444 C 140.483,405.027 137.096,415.629 137.096,427.123 C 137.096,438.62 140.483,446.656 144.661,445.073 C 148.838,443.49 152.226,432.887 152.226,421.391 z"
         style="fill:#2b5df2;stroke:#000000;stroke-width:3;stroke-linecap:round;stroke-linejoin:round" />
      <polygon
         transform="translate(-3.8e-2,-4.8e-2)"
         id="polygon2675"
         points="120.613,398.863 116.284,412.416 120.613,422.686 124.942,409.134 120.613,398.863 "
         style="fill:#5ab532;stroke:#000000;stroke-width:3;stroke-linecap:round;stroke-linejoin:round" />
      <polygon
         transform="translate(-3.8e-2,-4.8e-2)"
         id="polygon2677"
         points="168.786,380.611 173.115,390.881 168.786,404.433 164.456,394.162 168.786,380.611 "
         style="fill:#5ab532;stroke:#000000;stroke-width:3;stroke-linecap:round;stroke-linejoin:round" />
      <polygon
         transform="translate(-3.8e-2,-4.8e-2)"
         id="polygon2679"
         points="120.613,467.998 116.284,457.727 120.613,444.178 124.942,454.448 120.613,467.998 "
         style="fill:#5ab532;stroke:#000000;stroke-width:3;stroke-linecap:round;stroke-linejoin:round" />
      <polygon
         transform="translate(-3.8e-2,-4.8e-2)"
         id="polygon2681"
         points="168.786,449.746 173.115,436.195 168.786,425.926 164.456,439.475 168.786,449.746 "
         style="fill:#5ab532;stroke:#000000;stroke-width:3;stroke-linecap:round;stroke-linejoin:round" />
      <circle
         transform="translate(-3.8e-2,-4.8e-2)"
         id="circle2685"
         r="22.374001"
         cy="406.927"
         cx="301.534"
         sodipodi:cx="301.534"
         sodipodi:cy="406.927"
         sodipodi:rx="22.374001"
         sodipodi:ry="22.374001"
         style="fill:#2b5df2;stroke:#000000;stroke-width:3;stroke-linecap:round;stroke-linejoin:round" />
      <rect
         id="rect2687"
         height="18.107826"
         width="18.106827"
         transform="matrix(0.7071068,-0.7071068,0.7071068,0.7071068,0,0)"
         y="424.24194"
         x="-116.70426"
         style="fill:#5ab532;stroke:#000000;stroke-width:2.99997115;stroke-linecap:round;stroke-linejoin:round" />
      <rect
         id="rect2689"
         height="18.106827"
         width="18.106827"
         transform="matrix(-0.7071068,-0.7071068,0.7071068,-0.7071068,0,0)"
         y="-15.973275"
         x="-543.11237"
         style="fill:#5ab532;stroke:#000000;stroke-width:2.99997115;stroke-linecap:round;stroke-linejoin:round" />
      <rect
         id="rect2691"
         height="18.106827"
         width="18.107826"
         transform="matrix(0.7071068,0.7071068,-0.7071068,0.7071068,0,0)"
         y="133.04401"
         x="458.70227"
         style="fill:#5ab532;stroke:#000000;stroke-width:2.99997115;stroke-linecap:round;stroke-linejoin:round" />
      <rect
         id="rect2693"
         height="18.105827"
         width="18.107826"
         transform="matrix(-0.7071068,0.7071068,-0.7071068,-0.7071068,0,0)"
         y="-577.5343"
         x="32.292496"
         style="fill:#5ab532;stroke:#000000;stroke-width:2.99997115;stroke-linecap:round;stroke-linejoin:round" />
      <path
         id="path2697"
         d="M 450.773,421.391 C 450.773,409.896 454.16,401.861 458.337,403.444 C 462.516,405.027 465.902,415.629 465.902,427.123 C 465.902,438.62 462.515,446.656 458.337,445.073 C 454.159,443.49 450.773,432.887 450.773,421.391 z"
         style="fill:#2b5df2;stroke:#000000;stroke-width:3;stroke-linecap:round;stroke-linejoin:round" />
      <polygon
         transform="translate(-3.8e-2,-4.8e-2)"
         id="polygon2699"
         points="482.461,398.863 486.79,412.416 482.461,422.686 478.131,409.134 482.461,398.863 "
         style="fill:#5ab532;stroke:#000000;stroke-width:3;stroke-linecap:round;stroke-linejoin:round" />
      <polygon
         transform="translate(-3.8e-2,-4.8e-2)"
         id="polygon2701"
         points="434.289,380.611 429.959,390.881 434.289,404.433 438.617,394.162 434.289,380.611 "
         style="fill:#5ab532;stroke:#000000;stroke-width:3;stroke-linecap:round;stroke-linejoin:round" />
      <polygon
         transform="translate(-3.8e-2,-4.8e-2)"
         id="polygon2703"
         points="482.461,467.998 486.79,457.727 482.461,444.178 478.131,454.448 482.461,467.998 "
         style="fill:#5ab532;stroke:#000000;stroke-width:3;stroke-linecap:round;stroke-linejoin:round" />
      <polygon
         transform="translate(-3.8e-2,-4.8e-2)"
         id="polygon2705"
         points="434.289,449.746 429.959,436.195 434.289,425.926 438.617,439.475 434.289,449.746 "
         style="fill:#5ab532;stroke:#000000;stroke-width:3;stroke-linecap:round;stroke-linejoin:round" />
    </g>
  </g>
  <g
     inkscape:groupmode="layer"
     id="layer3"
     inkscape:label="Reflet final"
     style="display:inline"
     sodipodi:insensitive="true">
    <path
       style="fill:url(#radialGradient3236);fill-opacity:1"
       d="M 1.5,1.5 L 1.5,460.3679 C 1.5,626.67854 135.81454,761.5 301.49993,761.5 C 467.1854,761.5 601.5,626.67854 601.5,460.3679 L 601.5,1.5 L 1.5,1.5 z "
       id="path2346" />
  </g>
  <g
     inkscape:groupmode="layer"
     id="layer4"
     inkscape:label="Contour final"
     style="display:inline"
     sodipodi:insensitive="true">
    <path
       style="fill:none;fill-opacity:1;stroke:#000000;stroke-width:3;stroke-miterlimit:4;stroke-dasharray:none;stroke-opacity:1"
       d="M 1.5,1.5 L 1.5,460.36794 C 1.5,626.67854 135.81454,761.5 301.49993,761.5 C 467.1854,761.5 601.5,626.67854 601.5,460.36794 L 601.5,1.5 L 1.5,1.5 z "
       id="path3239" />
  </g>
</svg>
