<?xml version="1.0" encoding="UTF-8"?>
<!DOCTYPE svg PUBLIC "-//W3C//DTD SVG 1.1//EN" "http://www.w3.org/Graphics/SVG/1.1/DTD/svg11.dtd">
<svg width="400" height="500" xmlns="http://www.w3.org/2000/svg">
 <path d="M396 4H4v200c5 150 80 240 196 292 117-54 192-144 196-292V4z" fill="#094"/>
 <g stroke="#000">
  <g transform="translate(-10.176 -55.297) scale(.74771)" fill="#fcef3c" stroke-width="3">
   <path d="M152.79 394.53c17.668 10.601 34.787 2.76 56.028 6.563 4.227 4.225 0 9.59 0 9.59-14.965-1.577-29.623 2.687-45.413.558 1.839 6.883 4.092 20.108.236 35.785h-9.463s8.254-16.527 1.114-37.472a54.932 54.932 0 0 1-5.532-1.899c-21.199-8.58-42.399 0-42.399 0 0-10.096-8.077-12.114-8.077-12.114 12.621-7.069 35.844-11.61 53.506-1.011z"/>
   <circle transform="translate(-.038 -.045)" cx="140.91" cy="511.9" r="19.878"/>
   <circle transform="translate(-.038 -.045)" cx="179.56" cy="505.5" r="19.878"/>
   <circle transform="translate(-.038 -.045)" cx="187.43" cy="534.67" r="19.879"/>
   <circle transform="translate(-.038 -.045)" cx="158.45" cy="547.9" r="19.879"/>
   <circle transform="translate(-.038 -.045)" cx="173.62" cy="578.77" r="19.879"/>
   <circle transform="translate(-.038 -.045)" cx="149.61" cy="577.13" r="19.877"/>
   <circle transform="translate(-.038 -.045)" cx="125.83" cy="555.16" r="19.88"/>
   <circle transform="translate(-.038 -.045)" cx="141.43" cy="472.82" r="19.879"/>
   <circle transform="translate(-.038 -.045)" cx="194.34" cy="451.02" r="19.879"/>
   <circle transform="translate(-.038 -.045)" cx="103.64" cy="451.02" r="19.879"/>
   <circle transform="translate(-.038 -.045)" cx="137.19" cy="451.02" r="19.879"/>
   <circle transform="translate(-.038 -.045)" cx="165.45" cy="459.41" r="19.88"/>
   <circle transform="translate(-.038 -.045)" cx="162.97" cy="603.22" r="19.879"/>
   <circle transform="translate(-.038 -.045)" cx="129.74" cy="577.13" r="19.877"/>
   <circle transform="translate(-.038 -.045)" cx="163.28" cy="567.19" r="19.879"/>
   <circle transform="translate(-.038 -.045)" cx="193.72" cy="553.53" r="19.878"/>
   <circle transform="translate(-.038 -.045)" cx="88.732" cy="485.81" r="19.879"/>
   <circle transform="translate(-.038 -.045)" cx="110.48" cy="538" r="19.879"/>
   <circle transform="translate(-.038 -.045)" cx="207.39" cy="514.39" r="19.88"/>
   <circle transform="translate(-.038 -.045)" cx="135.95" cy="538.61" r="19.879"/>
   <circle transform="translate(-.038 -.045)" cx="168.25" cy="521.84" r="19.88"/>
   <circle transform="translate(-.038 -.045)" cx="119.8" cy="474.63" r="19.881"/>
   <circle transform="translate(-.038 -.045)" cx="219.19" cy="471.52" r="19.879"/>
   <circle transform="translate(-.038 -.045)" cx="190.61" cy="485.19" r="19.88"/>
   <circle transform="translate(-.038 -.045)" cx="152.1" cy="490.78" r="19.879"/>
   <circle transform="translate(-.038 -.045)" cx="114.2" cy="505.69" r="19.879"/>
  </g>
  <path d="M4 4v58.143c9.588 2.952 19.125 5.655 30.715 18.426 22.598 24.902 7.814 38.318 30.412 63.221 22.599 24.902 37.382 11.487 59.98 36.389 22.597 24.9 7.813 38.317 30.412 63.219 22.598 24.902 37.382 11.486 59.979 36.387 22.599 24.901 7.816 38.318 30.414 63.219 22.6 24.902 37.383 11.485 59.98 36.385 10.818 11.922 13.045 21.203 14.932 30.381 20.125-22.621 36.602-48.288 48.977-77.344a70.917 70.917 0 0 0-5.143-6.37c-22.597-24.9-37.379-11.485-59.975-36.386-22.599-24.901-7.817-38.315-30.414-63.215-22.599-24.902-37.38-11.488-59.98-36.391-22.597-24.9-7.813-38.316-30.412-63.217-22.598-24.902-37.379-11.486-59.979-36.39-22.598-24.901-7.817-38.315-30.416-63.216C77.004 9.08 64.646 11.125 50.42 4H4z" fill="#fff" stroke-width="2.5"/>
  <g stroke-linejoin="round" stroke-width="3">
   <path d="M377.935 185.09c-9.385 9.61-11.454 24.414-8.603 45.655 2.535 18.89-21.952 31.94-27.647 34.705.467-2.169 1.143-3.186 1.699-3.992 0 0 3.3-7.404 5.709-10.39.002 0 .003-.002.004-.005l-.002.003c3.522-4.362 6.1-10.598 4.331-17.976a1.725 1.725 0 0 1-.048-.434c-1.336 0-2.819.538-4.285 1.392 3.521-4.362 6.102-10.599 4.333-17.979a1.726 1.726 0 0 1-.048-.433c-1.336 0-2.82.538-4.286 1.392 3.52-4.363 6.1-10.598 4.33-17.978a1.78 1.78 0 0 1-.046-.433c-1.337 0-2.821.537-4.286 1.39 3.522-4.362 6.1-10.598 4.33-17.978a1.755 1.755 0 0 1-.046-.433c-1.337 0-2.82.537-4.285 1.39 3.522-4.362 6.1-10.598 4.331-17.978a1.758 1.758 0 0 1-.047-.433c-2.599 0-5.756 2.034-8.261 4.47.347-6.677-3.5-12.863-5.603-14.182-2.103 1.319-5.95 7.505-5.606 14.182-2.505-2.436-5.66-4.47-8.26-4.47.002.142-.012.285-.048.433-1.768 7.38.812 13.616 4.332 17.978-1.465-.852-2.948-1.39-4.285-1.39a1.68 1.68 0 0 1-.047.433c-1.768 7.38.812 13.616 4.332 17.978-1.465-.853-2.95-1.39-4.285-1.39.003.141-.013.286-.047.433-1.77 7.38.81 13.615 4.33 17.978-1.466-.853-2.95-1.392-4.286-1.392.003.14-.014.286-.047.433-1.77 7.38.809 13.616 4.33 17.979-1.466-.853-2.95-1.392-4.285-1.392.004.141-.013.288-.047.434-1.768 7.378.81 13.614 4.33 17.976l-.003-.003c.002.003.003.003.003.006 2.412 2.985 5.712 10.39 5.712 10.39.395.577.856 1.264 1.257 2.402-3.923-2.496-12.251-9.26-22.828-26.175-14.858-23.761-14.858-45.654-14.858-45.654s-13.296 10.412-21.638 24.563c0 0 11.209-4.806 18.77-12.55 0 0 3.388 44.79 41.308 63.335.15 1.276.242 2.828.242 4.762v12.267l3.24-5.206v-7.061c0-.88.02-1.678.054-2.412 32.842-17.092 38.316-23.767 34.406-45.392-3.908-21.627 2.35-39.248 2.35-39.248z" fill="#fcef3c" stroke-linecap="round" stroke-width="2.5"/>
   <g fill="none">
    <g stroke-width="2.5">
     <path d="m345.11 169.04c-0.127 2.443-0.813 4.952-2.355 7.311m2.355 9.716c-0.127 2.44-0.813 4.95-2.355 7.309"/>
     <path d="m339.51 171.88c2.103 1.32 5.952 7.505 5.604 14.183 1.217-1.185 2.59-2.275 3.977-3.081m-3.981 20.102c-0.127 2.443-0.813 4.951-2.352 7.312m-3.248-21.498c2.103 1.32 5.951 7.506 5.604 14.183 1.216-1.184 2.589-2.273 3.978-3.08m-3.982 20.102c-0.127 2.443-0.813 4.951-2.352 7.312"/>
     <path d="m339.51 205.92c2.105 1.32 5.952 7.505 5.604 14.183 1.218-1.183 2.59-2.274 3.978-3.08m-3.982 20.101c-0.126 2.443-0.813 4.951-2.352 7.31m-3.248-21.496c2.103 1.321 5.95 7.507 5.602 14.185 1.22-1.184 2.59-2.274 3.979-3.08m-3.981 20.1c-0.126 2.442-1.094 5.93-2.352 8.288"/>
     <path d="M339.51 239.96c2.103 1.321 5.95 7.507 5.602 14.184 1.22-1.182 2.59-2.275 3.979-3.08M333.905 169.037c.126 2.443.814 4.952 2.353 7.311M333.905 186.064c.126 2.44.814 4.95 2.353 7.309"/>
     <path d="m339.51 171.88c-2.103 1.32-5.95 7.505-5.604 14.183-1.216-1.185-2.589-2.275-3.977-3.081m3.976 20.102c0.126 2.443 0.815 4.951 2.354 7.312m3.251-21.498c-2.105 1.32-5.95 7.506-5.604 14.183-1.218-1.184-2.589-2.273-3.978-3.08m3.977 20.102c0.126 2.443 0.813 4.951 2.354 7.312"/>
     <path d="m339.51 205.92c-2.104 1.32-5.95 7.505-5.604 14.183-1.218-1.183-2.59-2.274-3.977-3.08m3.976 20.101c0.125 2.443 0.813 4.951 2.352 7.31m3.246-21.496c-2.104 1.321-5.95 7.507-5.605 14.185-1.217-1.184-2.588-2.274-3.976-3.08m3.983 20.1c0.125 2.442 1.011 5.754 2.352 8.288"/>
     <path d="m339.5 239.96c-2.104 1.321-5.95 7.507-5.605 14.184-1.217-1.182-2.588-2.275-3.976-3.08"/>
    </g>
    <g stroke-linecap="round">
     <path d="m353.37 164.57c0.03-1.526 2.128-2.694 2.958-2.938m-16.818-9.932v3.16m13.86 26.729c0.03-1.525 2.128-2.692 2.958-2.936m-16.818-9.934v3.16m0-3.16v3.16m13.86 26.736c0.032-1.526 2.128-2.692 2.958-2.936m-2.951 19.955c0.031-1.527 2.13-2.693 2.96-2.938m-2.96 19.956c0.031-1.525 2.13-2.691 2.96-2.936m-30.7-14.082c-0.031-1.527-2.129-2.693-2.958-2.938m2.958 19.956c-0.031-1.525-2.129-2.691-2.958-2.936m2.958-65.146c-0.031-1.526-2.129-2.694-2.958-2.938m2.958 19.957c-0.031-1.526-2.129-2.692-2.958-2.936m2.958 19.962c-0.031-1.525-2.129-2.693-2.96-2.936m16.833-9.934v3.16m0 13.859v3.16m0-3.16v3.16m0 13.858v3.16m-7e-3 13.859v3.16" stroke-width="2.5"/>
    </g>
    <path d="m296.34 204.04 2.87-12.007" stroke-width="2.5"/>
   </g>
   <path d="M377.935 47.325c-9.385 9.611-11.454 24.414-8.603 45.655 2.535 18.891-21.952 31.94-27.647 34.705.467-2.168 1.143-3.185 1.699-3.991 0 0 3.3-7.404 5.709-10.39l.004-.006-.002.002c3.522-4.362 6.1-10.598 4.331-17.976a1.728 1.728 0 0 1-.048-.434c-1.336 0-2.819.538-4.285 1.39 3.521-4.361 6.102-10.598 4.333-17.978a1.723 1.723 0 0 1-.048-.433c-1.336 0-2.82.538-4.286 1.392 3.52-4.363 6.1-10.598 4.33-17.979a1.78 1.78 0 0 1-.046-.433c-1.337 0-2.821.537-4.286 1.39 3.522-4.361 6.1-10.598 4.33-17.977a1.755 1.755 0 0 1-.046-.434c-1.337 0-2.82.538-4.285 1.39 3.522-4.361 6.1-10.597 4.331-17.978a1.755 1.755 0 0 1-.047-.433c-2.599 0-5.756 2.034-8.261 4.47.347-6.677-3.5-12.864-5.603-14.183-2.103 1.32-5.95 7.506-5.606 14.183-2.505-2.436-5.66-4.47-8.26-4.47a1.68 1.68 0 0 1-.048.433c-1.768 7.38.812 13.616 4.332 17.979-1.465-.853-2.948-1.39-4.285-1.39a1.68 1.68 0 0 1-.047.433c-1.768 7.379.812 13.616 4.332 17.978-1.465-.853-2.95-1.39-4.285-1.39a1.71 1.71 0 0 1-.047.432c-1.77 7.38.81 13.616 4.33 17.979-1.466-.853-2.95-1.392-4.286-1.392a1.79 1.79 0 0 1-.047.433c-1.77 7.38.809 13.616 4.33 17.979-1.466-.853-2.95-1.391-4.285-1.391.004.141-.013.287-.047.434-1.768 7.378.81 13.614 4.33 17.976l-.003-.002c.002.002.003.002.003.005 2.412 2.986 5.712 10.39 5.712 10.39.395.578.856 1.265 1.257 2.403-3.923-2.496-12.251-9.26-22.828-26.174-14.858-23.763-14.858-45.655-14.858-45.655S285.907 64.68 277.565 78.83c0 0 11.209-4.805 18.77-12.548 0 0 3.388 44.79 41.308 63.335.15 1.275.242 2.828.242 4.761v12.268l3.24-5.207v-7.061c0-.88.02-1.679.054-2.412 32.842-17.092 38.316-23.767 34.406-45.393-3.908-21.625 2.35-39.247 2.35-39.247z" fill="#fcef3c" stroke-linecap="round" stroke-width="2.5"/>
   <g fill="none">
    <g stroke-width="2.5">
     <path d="M345.11 31.277c-.127 2.443-.813 4.952-2.355 7.311M345.11 48.3c-.127 2.44-.813 4.95-2.355 7.31"/>
     <path d="M339.51 34.116c2.103 1.32 5.952 7.505 5.604 14.184 1.217-1.185 2.59-2.275 3.977-3.082M345.11 65.32c-.127 2.442-.813 4.95-2.352 7.31M339.51 51.136c2.103 1.32 5.951 7.507 5.604 14.183 1.216-1.184 2.589-2.273 3.978-3.08M345.11 82.338c-.127 2.443-.813 4.95-2.352 7.31"/>
     <path d="m339.51 68.159c2.105 1.319 5.952 7.505 5.604 14.183 1.218-1.183 2.59-2.274 3.978-3.08m-3.982 20.102c-0.126 2.443-0.813 4.951-2.352 7.31m-3.248-21.496c2.103 1.32 5.95 7.506 5.602 14.185 1.22-1.184 2.59-2.275 3.979-3.08m-3.981 20.1c-0.126 2.441-1.094 5.93-2.352 8.288"/>
     <path d="M339.51 102.197c2.103 1.321 5.95 7.506 5.602 14.184 1.22-1.183 2.59-2.275 3.979-3.08M333.905 31.277c.126 2.443.814 4.952 2.353 7.311M333.905 48.3c.126 2.44.814 4.95 2.353 7.31"/>
     <path d="M339.51 34.116c-2.103 1.32-5.95 7.505-5.604 14.184-1.216-1.185-2.589-2.275-3.977-3.082M333.905 65.32c.126 2.442.815 4.95 2.354 7.31M339.51 51.136c-2.105 1.32-5.95 7.507-5.604 14.183-1.218-1.184-2.589-2.273-3.978-3.08M333.905 82.338c.126 2.443.813 4.95 2.354 7.31"/>
     <path d="m339.51 68.159c-2.104 1.319-5.95 7.505-5.604 14.183-1.218-1.183-2.59-2.274-3.977-3.08m3.976 20.102c0.125 2.443 0.813 4.951 2.352 7.31m3.246-21.496c-2.104 1.32-5.95 7.506-5.605 14.185-1.217-1.184-2.588-2.275-3.976-3.08m3.983 20.1c0.125 2.441 1.011 5.754 2.352 8.288"/>
     <path d="m339.5 102.2c-2.104 1.321-5.95 7.506-5.605 14.184-1.217-1.183-2.588-2.275-3.976-3.08"/>
    </g>
    <g stroke-linecap="round">
     <path d="m353.37 26.808c0.03-1.526 2.128-2.694 2.958-2.937m-16.818-9.937v3.16m13.86 26.733c0.03-1.525 2.128-2.692 2.958-2.936m-16.818-9.934v3.159m0-3.16v3.16m13.86 26.733c0.032-1.526 2.128-2.693 2.958-2.937m-2.951 19.958c0.031-1.527 2.13-2.694 2.96-2.938m-2.96 19.956c0.031-1.525 2.13-2.692 2.96-2.936m-30.7-14.082c-0.031-1.527-2.129-2.694-2.958-2.938m2.958 19.956c-0.031-1.525-2.129-2.692-2.958-2.936m2.958-65.144c-0.031-1.526-2.129-2.694-2.958-2.937m2.958 19.956c-0.031-1.526-2.129-2.692-2.958-2.936m2.958 19.958c-0.031-1.525-2.129-2.693-2.96-2.937m16.833-9.935v3.16m0 13.862v3.16m0-3.161v3.16m0 13.86v3.16m-7e-3 13.859v3.16" stroke-width="2.5"/>
    </g>
    <path d="m296.34 66.281 2.87-12.014" stroke-width="2.5"/>
   </g>
   <path d="M260.41 47.325c-9.385 9.611-11.454 24.414-8.602 45.655 2.534 18.891-21.952 31.94-27.648 34.705.467-2.168 1.143-3.185 1.699-3.991 0 0 3.3-7.404 5.71-10.39.002-.002.003-.003.003-.006l-.001.002c3.521-4.362 6.099-10.598 4.33-17.976a1.728 1.728 0 0 1-.048-.434c-1.336 0-2.819.538-4.284 1.39 3.52-4.361 6.1-10.598 4.332-17.978a1.723 1.723 0 0 1-.048-.433c-1.336 0-2.82.538-4.286 1.392 3.52-4.363 6.1-10.598 4.33-17.979a1.78 1.78 0 0 1-.046-.433c-1.337 0-2.82.537-4.285 1.39 3.52-4.361 6.1-10.598 4.33-17.977a1.755 1.755 0 0 1-.047-.434c-1.337 0-2.82.538-4.284 1.39 3.521-4.361 6.1-10.597 4.33-17.978a1.755 1.755 0 0 1-.047-.433c-2.599 0-5.756 2.034-8.261 4.47.347-6.677-3.5-12.864-5.603-14.183-2.103 1.32-5.95 7.506-5.605 14.183-2.505-2.436-5.662-4.47-8.262-4.47a1.68 1.68 0 0 1-.047.433c-1.768 7.38.812 13.616 4.332 17.979-1.465-.853-2.948-1.39-4.285-1.39a1.68 1.68 0 0 1-.047.433c-1.768 7.379.812 13.616 4.332 17.978-1.465-.853-2.95-1.39-4.286-1.39a1.71 1.71 0 0 1-.046.432c-1.77 7.38.81 13.616 4.33 17.979-1.466-.853-2.95-1.392-4.286-1.392a1.79 1.79 0 0 1-.047.433c-1.77 7.38.809 13.616 4.33 17.979-1.466-.853-2.95-1.391-4.285-1.391.004.141-.013.287-.047.434-1.768 7.378.81 13.614 4.33 17.976l-.003-.002c.002.002.003.002.003.005 2.411 2.986 5.712 10.39 5.712 10.39.396.578.856 1.265 1.257 2.403-3.923-2.496-12.251-9.26-22.828-26.174-14.855-23.763-14.855-45.655-14.855-45.655S168.385 64.68 160.043 78.83c0 0 11.21-4.805 18.77-12.548 0 0 3.388 44.79 41.308 63.335.15 1.275.242 2.828.242 4.761v12.268l3.24-5.207v-7.061c0-.88.02-1.679.054-2.412 32.842-17.092 38.316-23.767 34.406-45.393-3.91-21.625 2.347-39.247 2.347-39.247z" fill="#fcef3c" stroke-linecap="round" stroke-width="2.5"/>
   <g fill="none">
    <g stroke-width="2.5">
     <path d="M227.592 31.277c-.127 2.443-.812 4.952-2.353 7.311M227.592 48.3c-.127 2.44-.812 4.95-2.353 7.31"/>
     <path d="M221.986 34.116c2.102 1.32 5.95 7.505 5.603 14.184 1.217-1.185 2.59-2.275 3.977-3.082M227.592 65.32c-.127 2.442-.812 4.95-2.351 7.31M221.986 51.136c2.103 1.32 5.95 7.507 5.603 14.183 1.216-1.184 2.589-2.273 3.978-3.08M227.592 82.338c-.127 2.443-.812 4.95-2.351 7.31"/>
     <path d="m221.99 68.159c2.105 1.319 5.95 7.505 5.603 14.183 1.218-1.183 2.59-2.274 3.978-3.08m-3.975 20.102c-0.126 2.443-0.812 4.951-2.352 7.31m-3.247-21.496c2.103 1.32 5.949 7.506 5.602 14.185 1.22-1.184 2.589-2.275 3.979-3.08m-3.982 20.1c-0.126 2.441-1.093 5.93-2.352 8.288"/>
     <path d="M221.993 102.197c2.103 1.321 5.949 7.506 5.602 14.184 1.22-1.183 2.589-2.275 3.979-3.08M216.38 31.277c.126 2.443.813 4.952 2.352 7.311M216.38 48.3c.126 2.44.813 4.95 2.352 7.31"/>
     <path d="M221.986 34.116c-2.104 1.32-5.95 7.505-5.604 14.184-1.217-1.185-2.59-2.275-3.978-3.082M216.38 65.32c.126 2.442.814 4.95 2.353 7.31M221.986 51.136c-2.106 1.32-5.951 7.507-5.605 14.183-1.218-1.184-2.589-2.273-3.978-3.08M216.38 82.338c.126 2.443.812 4.95 2.353 7.31"/>
     <path d="m221.99 68.159c-2.105 1.319-5.95 7.505-5.604 14.183-1.219-1.183-2.59-2.274-3.978-3.08m3.976 20.102c0.125 2.443 0.812 4.951 2.351 7.31m3.255-21.496c-2.104 1.32-5.95 7.506-5.605 14.185-1.218-1.184-2.589-2.275-3.977-3.08m3.976 20.1c0.125 2.441 1.01 5.754 2.351 8.288"/>
     <path d="m221.99 102.2c-2.104 1.321-5.95 7.506-5.605 14.184-1.218-1.183-2.589-2.275-3.977-3.08"/>
    </g>
    <g stroke-linecap="round">
     <path d="m235.85 26.808c0.031-1.526 2.128-2.694 2.958-2.937m-16.824-9.937v3.16m13.866 26.733c0.031-1.525 2.128-2.692 2.958-2.936m-16.824-9.934v3.159m0-3.16v3.16m13.866 26.733c0.032-1.526 2.128-2.693 2.958-2.937m-2.958 19.958c0.031-1.527 2.13-2.694 2.96-2.938m-2.96 19.956c0.031-1.525 2.13-2.692 2.96-2.936m-30.692-14.082c-0.032-1.527-2.13-2.694-2.959-2.938m2.959 19.956c-0.032-1.525-2.13-2.692-2.959-2.936m2.959-65.144c-0.032-1.526-2.13-2.694-2.959-2.937m2.959 19.956c-0.032-1.526-2.13-2.692-2.959-2.936m2.959 19.958c-0.032-1.525-2.13-2.693-2.959-2.937m16.825-9.935v3.16m0 13.862v3.16m7e-3 -3.161v3.16m0 13.86v3.16m-7e-3 13.859v3.16" stroke-width="2.5"/>
    </g>
    <path d="m178.81 66.281 2.87-12.014" stroke-width="2.5"/>
   </g>
  </g>
  <path d="M396 4H4v200c5 150 80 240 196 292 117-54 192-144 196-292V4z" fill="none" stroke-width="8"/>
 </g>
</svg>
