<?xml version="1.0" encoding="UTF-8" standalone="no"?>
<svg
   xmlns:dc="http://purl.org/dc/elements/1.1/"
   xmlns:cc="http://creativecommons.org/ns#"
   xmlns:rdf="http://www.w3.org/1999/02/22-rdf-syntax-ns#"
   xmlns:svg="http://www.w3.org/2000/svg"
   xmlns="http://www.w3.org/2000/svg"
   xmlns:xlink="http://www.w3.org/1999/xlink"
   xmlns:sodipodi="http://sodipodi.sourceforge.net/DTD/sodipodi-0.dtd"
   xmlns:inkscape="http://www.inkscape.org/namespaces/inkscape"
   height="763"
   width="603"
   version="1.0"
   id="svg20"
   sodipodi:version="0.32"
   inkscape:version="0.91 r13725"
   sodipodi:docname="admin_grandson.svg"
   inkscape:output_extension="org.inkscape.output.svg.inkscape">
  <metadata
     id="metadata31">
    <rdf:RDF>
      <cc:Work
         rdf:about="">
        <dc:format>image/svg+xml</dc:format>
        <dc:type
           rdf:resource="http://purl.org/dc/dcmitype/StillImage" />
        <dc:date>07-AUG-2006</dc:date>
        <dc:creator>
          <cc:Agent>
            <dc:title>Jérôme BLUM (wagner51)</dc:title>
          </cc:Agent>
        </dc:creator>
        <cc:license
           rdf:resource="http://creativecommons.org/licenses/GPL/2.0/" />
        <dc:coverage />
        <dc:description>Gabarit pour le Projet:Blasons de WIkipédia</dc:description>
        <dc:subject>
          <rdf:Bag>
            <rdf:li>blason suisse modèle gabarit projet blasons</rdf:li>
          </rdf:Bag>
        </dc:subject>
        <dc:language>fr</dc:language>
        <dc:title>Gabrit d'un blason suisse</dc:title>
      </cc:Work>
      <cc:License
         rdf:about="http://creativecommons.org/licenses/GPL/2.0/">
        <cc:permits
           rdf:resource="http://web.resource.org/cc/Reproduction" />
        <cc:permits
           rdf:resource="http://web.resource.org/cc/Distribution" />
        <cc:requires
           rdf:resource="http://web.resource.org/cc/Notice" />
        <cc:permits
           rdf:resource="http://web.resource.org/cc/DerivativeWorks" />
        <cc:requires
           rdf:resource="http://web.resource.org/cc/ShareAlike" />
        <cc:requires
           rdf:resource="http://web.resource.org/cc/SourceCode" />
      </cc:License>
    </rdf:RDF>
  </metadata>
  <defs
     id="defs29">
    <inkscape:perspective
       sodipodi:type="inkscape:persp3d"
       inkscape:vp_x="0 : 381.5 : 1"
       inkscape:vp_y="0 : 1000 : 0"
       inkscape:vp_z="603 : 381.5 : 1"
       inkscape:persp3d-origin="301.5 : 254.33333 : 1"
       id="perspective28" />
    <linearGradient
       id="linearGradient2893">
      <stop
         style="stop-color:#ffffff;stop-opacity:0.3137255;"
         offset="0"
         id="stop2895" />
      <stop
         id="stop2897"
         offset="0.19"
         style="stop-color:#ffffff;stop-opacity:0.25098041;" />
      <stop
         style="stop-color:#6b6b6b;stop-opacity:0.1254902;"
         offset="0.60000002"
         id="stop2901" />
      <stop
         style="stop-color:#000000;stop-opacity:0.1254902;"
         offset="1"
         id="stop2899" />
    </linearGradient>
    <linearGradient
       id="linearGradient2955">
      <stop
         style="stop-color:white;stop-opacity:0;"
         offset="0"
         id="stop2965" />
      <stop
         style="stop-color:black;stop-opacity:0.64583331;"
         offset="1"
         id="stop2959" />
    </linearGradient>
    <radialGradient
       inkscape:collect="always"
       xlink:href="#linearGradient2893"
       id="radialGradient3236"
       gradientUnits="userSpaceOnUse"
       gradientTransform="matrix(1.215027,1.531577e-24,1.464684e-23,1.266667,-839.1924,-490.4894)"
       cx="858.04236"
       cy="579.93323"
       fx="858.04236"
       fy="579.93323"
       r="300" />
    <inkscape:perspective
       id="perspective2584"
       inkscape:persp3d-origin="297.63751 : 280.63 : 1"
       inkscape:vp_z="595.27502 : 420.94501 : 1"
       inkscape:vp_y="0 : 1000 : 0"
       inkscape:vp_x="0 : 420.94501 : 1"
       sodipodi:type="inkscape:persp3d" />
  </defs>
  <sodipodi:namedview
     inkscape:window-height="1378"
     inkscape:window-width="2560"
     inkscape:pageshadow="2"
     inkscape:pageopacity="0.0"
     guidetolerance="10.0"
     gridtolerance="10.0"
     objecttolerance="10.0"
     borderopacity="1.0"
     bordercolor="#666666"
     pagecolor="#ffffff"
     id="base"
     inkscape:zoom="0.44714317"
     inkscape:cx="198.53504"
     inkscape:cy="496.33759"
     inkscape:window-x="-8"
     inkscape:window-y="-8"
     inkscape:current-layer="layer2"
     showgrid="false"
     showguides="true"
     inkscape:guide-bbox="true"
     inkscape:window-maximized="1">
    <sodipodi:guide
       orientation="horizontal"
       position="761.5"
       id="guide1885" />
    <sodipodi:guide
       orientation="vertical"
       position="1.5"
       id="guide1887" />
    <sodipodi:guide
       orientation="horizontal"
       position="1.5"
       id="guide1889" />
    <sodipodi:guide
       orientation="vertical"
       position="601.5"
       id="guide1891" />
    <sodipodi:guide
       orientation="vertical"
       position="301.50081"
       id="guide1893" />
  </sodipodi:namedview>
  <desc
     id="desc22">Coat of Arms of Canton of Freiburg (Fribourg)</desc>
  <g
     inkscape:groupmode="layer"
     id="layer1"
     inkscape:label="Fond écu"
     style="opacity:1;display:inline"
     sodipodi:insensitive="true">
    <path
       id="path1899"
       d="M 1.5,1.49998 L 1.5,460.3679 C 1.5,626.6785 135.81456,761.5 301.49999,761.5 C 467.18543,761.5 601.5,626.6785 601.5,460.3679 L 601.5,1.49998 L 1.5,1.49998 z"
       style="fill:#2b5df2;fill-opacity:1" />
  </g>
  <g
     inkscape:groupmode="layer"
     id="layer2"
     inkscape:label="Meubles"
     style="display:inline;opacity:1">
    <path
       id="path2517"
       d="m 414.57,417.505 c 10.817,18.972 17,40.927 17,64.328 0,71.838 -58.235,130.072 -130.071,130.072 -71.837,0 -130.073,-58.234 -130.073,-130.072 0,-23.401 6.185,-45.357 17.001,-64.329 -30.622,29.591 -49.669,71.083 -49.669,117.031 0,89.878 72.862,162.739 162.74,162.739 89.878,0 162.739,-72.861 162.739,-162.739 10e-4,-45.946 -19.046,-87.438 -49.667,-117.03 z"
       style="fill:#fcef3c;stroke:#000000;stroke-width:0;stroke-miterlimit:4;stroke-dasharray:none"
       inkscape:connector-curvature="0" />
    <g
       id="g2757"
       transform="matrix(0.9888082,0,0,0.9888082,4.4448618,-0.3985399)"
       style="stroke-width:0;stroke-miterlimit:4;stroke-dasharray:none">
      <polygon
         transform="translate(-0.038,-0.045)"
         style="fill:#fcef3c;stroke:#000000;stroke-width:0;stroke-linecap:round;stroke-miterlimit:4;stroke-dasharray:none"
         points="283.9,323.905 300.801,499.043 317.701,323.905 300.801,308.746 300.801,308.746 "
         id="polygon2523" />
      <polygon
         transform="translate(-0.038,-0.045)"
         style="fill:#fcef3c;stroke:#000000;stroke-width:0;stroke-linecap:round;stroke-miterlimit:4;stroke-dasharray:none"
         points="510.378,372.759 396.814,259.666 376.155,259.666 374.704,294.033 374.704,294.033 "
         id="polygon2525" />
      <polygon
         transform="translate(-0.038,-0.045)"
         style="fill:#fcef3c;stroke:#000000;stroke-width:0;stroke-linecap:round;stroke-miterlimit:4;stroke-dasharray:none"
         points="79.942,374.326 212.546,275.431 233.206,275.431 240.267,305.628 240.267,305.628 "
         id="polygon2527" />
      <polygon
         transform="translate(-0.038,-0.045)"
         style="fill:#fcef3c;stroke:#000000;stroke-width:0;stroke-linecap:round;stroke-miterlimit:4;stroke-dasharray:none"
         points="501.323,67.171 396.814,184.892 376.155,184.892 376.155,152.052 376.155,152.052 "
         id="polygon2529" />
      <polygon
         transform="translate(-0.038,-0.045)"
         style="fill:#fcef3c;stroke:#000000;stroke-width:0;stroke-linecap:round;stroke-miterlimit:4;stroke-dasharray:none"
         points="103.449,86.5 203.021,189.796 221.147,189.796 221.147,156.956 221.147,156.956 "
         id="polygon2531" />
      <polygon
         transform="translate(-0.038,-0.045)"
         style="fill:#fcef3c;stroke:#000000;stroke-width:0;stroke-linecap:round;stroke-miterlimit:4;stroke-dasharray:none"
         points="289.556,119.879 300.801,129.731 312.046,119.879 300.801,41.542 300.801,41.542 "
         id="polygon2533" />
      <path
         style="fill:#fcef3c;stroke:#000000;stroke-width:0;stroke-linecap:round;stroke-miterlimit:4;stroke-dasharray:none"
         d="m 197.946,215.968 c -15.908,-15.908 -39.163,-7.279 -50.655,-0.488 -11.492,6.791 -31.342,12.015 -47.536,3.657 -16.194,-8.358 -43.357,-8.358 -58.506,20.373 28.992,-14.888 40.092,-14.496 55.894,1.306 15.802,15.802 27.455,23.507 47.536,12.276 9.733,-5.444 16.324,-12.407 24.29,-4.441 7.967,7.966 19.848,9.097 32.517,1.153 l 15.148,-15.147 -18.688,-18.689 z"
         id="path2535"
         inkscape:connector-curvature="0" />
      <path
         style="fill:#fcef3c;stroke:#000000;stroke-width:0;stroke-linecap:round;stroke-miterlimit:4;stroke-dasharray:none"
         d="m 400.925,246.37 c 14.461,17.233 43.034,11.318 54.739,4.901 13.896,-7.618 27.951,-9.237 43.354,0.5 15.404,9.738 42.464,12.105 60.06,-15.196 -21.574,8.855 -31.937,6.765 -46.301,-6.172 -16.605,-14.956 -28.885,-24.233 -50.147,-13.878 -12.324,6.001 -24.652,8.245 -34.128,2.149 -9.658,-6.213 -15.713,-7.763 -25.072,-4.906 l -16.984,14.864 14.479,17.738 z"
         id="path2537"
         inkscape:connector-curvature="0" />
      <path
         style="fill:#fcef3c;stroke:#000000;stroke-width:0;stroke-linecap:round;stroke-miterlimit:4;stroke-dasharray:none"
         d="m 173.932,63.992 c 23.333,-1.393 43.511,4.051 46.491,21.765 1.567,9.316 7.835,11.405 15.932,12.973 8.097,1.567 19.92,9.817 21.453,29.852 l 0,16.639 -17.537,-6.37 c 0,-12.958 -7.833,-18.704 -15.93,-20.271 -8.097,-1.567 -21.156,-9.925 -21.156,-21.939 0,-12.015 -10.187,-27.686 -29.253,-32.649 z"
         id="path2539"
         inkscape:connector-curvature="0" />
      <path
         style="fill:#fcef3c;stroke:#000000;stroke-width:0;stroke-linecap:round;stroke-miterlimit:4;stroke-dasharray:none"
         d="m 391.761,48.582 c 10.186,22.723 9.062,40.906 -5.877,48.972 -13.06,7.052 -28.051,22.567 -25.571,40.614 l -21.05,10.971 -3.459,-23.801 C 334.3,111.267 340.7,94.421 357.023,88.544 375.095,82.038 391.761,72.35 391.761,48.582 Z"
         id="path2541"
         inkscape:connector-curvature="0" />
      <path
         style="fill:#fcef3c;stroke:#000000;stroke-width:0;stroke-linecap:round;stroke-miterlimit:4;stroke-dasharray:none"
         d="m 250.473,312.15 c -3.757,9.198 -16.642,8.849 -25.174,30.615 -8.533,21.765 1.916,36.74 -13.06,48.58 -14.975,11.841 -25.771,26.119 -14.975,43.531 3.135,-19.501 18.458,-23.681 30.298,-29.949 11.84,-6.268 17.064,-12.536 17.064,-32.039 0,-33.432 30.876,-31.359 34.243,-49.982 l -6.732,-17.579 -21.664,6.823 z"
         id="path2543"
         inkscape:connector-curvature="0" />
      <path
         style="fill:#fcef3c;stroke:#000000;stroke-width:0;stroke-linecap:round;stroke-miterlimit:4;stroke-dasharray:none"
         d="m 336.659,318.815 c -3.229,15.069 -6.844,27.778 19.755,48.152 16.367,12.538 3.48,35.523 16.367,56.766 12.885,21.242 36.914,14.626 36.914,14.626 -21.938,-12.537 -18.806,-27.164 -17.063,-47.015 1.74,-19.85 -2.263,-34.998 -20.547,-47.709 -18.284,-12.711 -9.824,-38.755 -9.824,-38.755 l -17.688,-10 -7.914,23.935 z"
         id="path2545"
         inkscape:connector-curvature="0" />
      <circle
         transform="translate(-0.038,-0.045)"
         id="circle2547"
         r="103.012"
         cy="222.28"
         cx="300.80099"
         style="fill:#fcef3c;stroke:#000000;stroke-width:0;stroke-miterlimit:4;stroke-dasharray:none" />
      <path
         id="path2553"
         d="m 348.384,262.801 c 0,0 -22.39,28.52 -47.604,28.52 -25.213,0 -47.604,-28.52 -47.604,-28.52"
         style="fill:none;stroke:#000000;stroke-width:0;stroke-linecap:round;stroke-linejoin:round;stroke-miterlimit:4;stroke-dasharray:none"
         inkscape:connector-curvature="0" />
      <path
         id="path2555"
         d="m 247.961,270.193 c 0,0 3.916,-7.773 12.76,-14.476"
         style="fill:none;stroke:#000000;stroke-width:0;stroke-linecap:round;stroke-linejoin:round;stroke-miterlimit:4;stroke-dasharray:none"
         inkscape:connector-curvature="0" />
      <path
         id="path2557"
         d="m 352.619,263.254 c 0,0 0.307,-4.496 -3.985,-4.905"
         style="fill:none;stroke:#000000;stroke-width:0;stroke-linecap:round;stroke-linejoin:round;stroke-miterlimit:4;stroke-dasharray:none"
         inkscape:connector-curvature="0" />
      <path
         id="path2559"
         d="m 335.636,275.728 c -10.613,2.399 -13.106,0 -34.856,0 -21.749,0 -24.242,2.399 -34.856,0"
         style="fill:none;stroke:#000000;stroke-width:0;stroke-linecap:round;stroke-linejoin:round;stroke-miterlimit:4;stroke-dasharray:none"
         inkscape:connector-curvature="0" />
      <path
         style="fill:none;stroke:#000000;stroke-width:0;stroke-linecap:round;stroke-linejoin:round;stroke-miterlimit:4;stroke-dasharray:none"
         d="m 284.675,252.569 c 3.656,1.306 6.058,7.052 16.088,7.052 10.03,0 9.509,-6.269 17.604,-10.97"
         id="path2561"
         inkscape:connector-curvature="0" />
      <path
         id="path2565"
         d="m 231.915,218.615 c 0,0 14.528,-8.352 27.686,-3.918 8.01,2.699 10.012,2.699 11.753,2.699"
         style="fill:none;stroke:#000000;stroke-width:0;stroke-linecap:round;stroke-linejoin:round;stroke-miterlimit:4;stroke-dasharray:none"
         inkscape:connector-curvature="0" />
      <circle
         transform="translate(-0.038,-0.045)"
         id="circle2567"
         r="3.0469999"
         cy="218.66"
         cx="250.758"
         style="stroke:#000000;stroke-width:0;stroke-linecap:round;stroke-linejoin:round;stroke-miterlimit:4;stroke-dasharray:none" />
      <path
         id="path2569"
         d="m 236.793,194.028 c 0,0 16.453,-0.313 28.207,16.055"
         style="fill:none;stroke:#000000;stroke-width:0;stroke-linecap:round;stroke-linejoin:round;stroke-miterlimit:4;stroke-dasharray:none"
         inkscape:connector-curvature="0" />
      <path
         id="path2573"
         d="m 369.611,218.615 c 0,0 -14.529,-8.352 -27.687,-3.918 -8.01,2.699 -10.012,2.699 -11.753,2.699"
         style="fill:none;stroke:#000000;stroke-width:0;stroke-linecap:round;stroke-linejoin:round;stroke-miterlimit:4;stroke-dasharray:none"
         inkscape:connector-curvature="0" />
      <circle
         transform="translate(-0.038,-0.045)"
         id="circle2575"
         r="3.0469999"
         cy="218.66"
         cx="350.84299"
         style="stroke:#000000;stroke-width:0;stroke-linecap:round;stroke-linejoin:round;stroke-miterlimit:4;stroke-dasharray:none" />
      <path
         id="path2577"
         d="m 364.733,194.028 c 0,0 -16.453,-0.313 -28.206,16.055"
         style="fill:none;stroke:#000000;stroke-width:0;stroke-linecap:round;stroke-linejoin:round;stroke-miterlimit:4;stroke-dasharray:none"
         inkscape:connector-curvature="0" />
    </g>
  </g>
  <g
     inkscape:groupmode="layer"
     id="layer3"
     inkscape:label="Reflet final"
     style="display:none"
     sodipodi:insensitive="true">
    <path
       style="fill:url(#radialGradient3236);fill-opacity:1"
       d="m 1.5,1.5 0,458.8679 C 1.5,626.67854 135.81454,761.5 301.49993,761.5 467.1854,761.5 601.5,626.67854 601.5,460.3679 L 601.5,1.5 1.5,1.5 Z"
       id="path2346"
       inkscape:connector-curvature="0" />
  </g>
  <g
     inkscape:groupmode="layer"
     id="layer4"
     inkscape:label="Contour final"
     style="display:inline"
     sodipodi:insensitive="true">
    <path
       style="fill:none;fill-opacity:1;stroke:#000000;stroke-width:20;stroke-miterlimit:4;stroke-dasharray:none;stroke-opacity:1"
       d="m 1.5,1.5 0,458.86794 C 1.5,626.67854 135.81454,761.5 301.49993,761.5 467.1854,761.5 601.5,626.67854 601.5,460.36794 L 601.5,1.5 1.5,1.5 Z"
       id="path3239"
       inkscape:connector-curvature="0" />
  </g>
</svg>
