<?xml version="1.0" encoding="UTF-8" standalone="no"?>
<svg
   xmlns:dc="http://purl.org/dc/elements/1.1/"
   xmlns:cc="http://creativecommons.org/ns#"
   xmlns:rdf="http://www.w3.org/1999/02/22-rdf-syntax-ns#"
   xmlns:svg="http://www.w3.org/2000/svg"
   xmlns="http://www.w3.org/2000/svg"
   xmlns:sodipodi="http://sodipodi.sourceforge.net/DTD/sodipodi-0.dtd"
   xmlns:inkscape="http://www.inkscape.org/namespaces/inkscape"
   width="158.48152mm"
   height="199.47867mm"
   viewBox="0 0 158.48152 199.47867"
   version="1.1"
   id="svg8"
   inkscape:version="1.0.1 (3bc2e813f5, 2020-09-07)"
   sodipodi:docname="admin_bonvillars.svg"
   inkscape:export-filename="E:\icones\inkscape\logos\orbe.png"
   inkscape:export-xdpi="96"
   inkscape:export-ydpi="96">
  <defs
     id="defs2">
    <clipPath
       clipPathUnits="userSpaceOnUse"
       id="clipPath849">
      <path
         d="M 0,155.835 H 240.945 V 0 H 0 Z"
         id="path847" />
    </clipPath>
    <clipPath
       clipPathUnits="userSpaceOnUse"
       id="clipPath1448">
      <path
         d="M 0,155.835 H 240.945 V 0 H 0 Z"
         id="path1446" />
    </clipPath>
    <clipPath
       clipPathUnits="userSpaceOnUse"
       id="clipPath1448-7">
      <path
         d="M 0,155.835 H 240.945 V 0 H 0 Z"
         id="path1446-1" />
    </clipPath>
    <clipPath
       clipPathUnits="userSpaceOnUse"
       id="clipPath849-1">
      <path
         d="M 0,35.433 H 28.151 V 0 H 0 Z"
         id="path847-4" />
    </clipPath>
    <clipPath
       clipPathUnits="userSpaceOnUse"
       id="clipPath849-4">
      <path
         d="M 0,155.835 H 240.945 V 0 H 0 Z"
         id="path847-5" />
    </clipPath>
    <clipPath
       clipPathUnits="userSpaceOnUse"
       id="clipPath1448-3">
      <path
         d="M 0,155.835 H 240.945 V 0 H 0 Z"
         id="path1446-4" />
    </clipPath>
    <clipPath
       clipPathUnits="userSpaceOnUse"
       id="clipPath1448-7-9">
      <path
         d="M 0,155.835 H 240.945 V 0 H 0 Z"
         id="path1446-1-9" />
    </clipPath>
    <clipPath
       clipPathUnits="userSpaceOnUse"
       id="clipPath849-1-0">
      <path
         d="M 0,35.433 H 28.151 V 0 H 0 Z"
         id="path847-4-3" />
    </clipPath>
  </defs>
  <sodipodi:namedview
     id="base"
     pagecolor="#ffffff"
     bordercolor="#666666"
     borderopacity="1.0"
     inkscape:pageopacity="0.0"
     inkscape:pageshadow="2"
     inkscape:zoom="0.7"
     inkscape:cx="345.68208"
     inkscape:cy="187.34331"
     inkscape:document-units="mm"
     inkscape:current-layer="layer1"
     inkscape:document-rotation="0"
     showgrid="true"
     inkscape:window-width="2560"
     inkscape:window-height="1377"
     inkscape:window-x="-8"
     inkscape:window-y="-8"
     inkscape:window-maximized="1">
    <inkscape:grid
       type="xygrid"
       id="grid1017" />
  </sodipodi:namedview>
  <metadata
     id="metadata5">
    <rdf:RDF>
      <cc:Work
         rdf:about="">
        <dc:format>image/svg+xml</dc:format>
        <dc:type
           rdf:resource="http://purl.org/dc/dcmitype/StillImage" />
        <dc:title></dc:title>
      </cc:Work>
    </rdf:RDF>
  </metadata>
  <g
     inkscape:label="Calque 1"
     inkscape:groupmode="layer"
     id="layer1"
     transform="translate(83.348656,-30.220057)">
    <g
       id="g1178"
       transform="matrix(1.0336055,0,0,1.0336055,-320.76784,-283.06577)">
      <g
         id="g1104">
        <path
           class="st3"
           d="m 229.7,355.3 c 0,-29.3 0,-52.2 0,-52.2 h 153.6 c 0,0 0,22.6 0,52.2"
           id="path1082" />
        <g
           id="g1094">
          <polygon
             class="st3"
             points="307,394 351.1,356 263.4,356 "
             id="polygon1084" />
          <path
             class="st3"
             d="m 263.3,466.3 c 20.2,19.2 42.1,24.6 42.1,24.6 0,0 23,-5.6 44,-25 l -42.5,-37.1 z"
             id="path1086" />
          <path
             class="st3"
             d="m 229.7,361.6 c 0,6.1 0,17.9 0,40.5 0,16.5 6.7,31.5 16.1,44.6 l 41,-35.3 z"
             id="path1088" />
          <path
             class="st3"
             d="m 367,446.3 c 9.5,-13 16.3,-27.9 16.3,-44.3 0,-20.9 0,-32.6 0,-39 L 327,411.5 Z"
             id="path1090" />
          <path
             class="st4"
             d="m 306.9,428.8 42.5,37.1 c 6.3,-5.8 12.4,-12.4 17.7,-19.5 l -40,-34.9 56.3,-48.5 c 0,-4.1 0,-6.1 0,-7 H 351.2 L 307,394 263.4,356 h -33.7 c 0,0.8 0,2.4 0,5.6 l 57.1,49.8 -41,35.3 c 5.2,7.2 11.3,13.8 17.5,19.7 z"
             id="path1092" />
        </g>
        <g
           id="g1102">
          <polygon
             class="st4"
             points="277.2,324.5 264.8,333.4 269.5,348 257.1,339 244.7,348 249.4,333.4 237.1,324.4 252.4,324.4 257.1,309.9 261.8,324.4 "
             id="polygon1096" />
          <polygon
             class="st4"
             points="326.6,324.5 314.2,333.4 318.9,348 306.5,339 294.1,348 298.8,333.4 286.5,324.4 301.8,324.4 306.6,309.9 311.3,324.4 "
             id="polygon1098" />
          <polygon
             class="st4"
             points="376,324.5 363.6,333.4 368.3,348 355.9,339 343.5,348 348.2,333.4 335.9,324.4 351.2,324.4 356,309.9 360.7,324.4 "
             id="polygon1100" />
        </g>
      </g>
      <g
         id="g1176">
        <path
           d="m 231.4,356.7 -0.4,-1.2 h 0.2 l 0.2,0.6 c 0.1,0.2 0.1,0.3 0.1,0.4 v 0 c 0,-0.1 0.1,-0.3 0.1,-0.4 l 0.2,-0.6 h 0.2 l -0.4,1.2 z"
           id="path1106" />
        <path
           d="m 232.2,356.3 c 0,0.2 0.1,0.3 0.3,0.3 0.1,0 0.2,0 0.2,0 v 0.1 c -0.1,0 -0.1,0.1 -0.3,0.1 -0.3,0 -0.4,-0.2 -0.4,-0.4 0,-0.2 0.1,-0.5 0.4,-0.5 0.3,0 0.3,0.2 0.3,0.4 0,0 0,0.1 0,0.1 h -0.5 z m 0.4,-0.1 c 0,-0.1 0,-0.2 -0.2,-0.2 -0.2,0 -0.2,0.1 -0.2,0.2 z"
           id="path1108" />
        <path
           d="m 233.5,356.7 c 0,0 -0.1,0.1 -0.2,0.1 -0.3,0 -0.4,-0.2 -0.4,-0.4 0,-0.3 0.2,-0.4 0.5,-0.4 0.1,0 0.2,0 0.2,0 v 0.1 c 0,0 -0.1,0 -0.2,0 -0.2,0 -0.3,0.1 -0.3,0.3 0,0.2 0.1,0.3 0.3,0.3 0.1,0 0.1,0 0.2,0 z"
           id="path1110" />
        <path
           d="m 233.9,355.7 v 0.2 h 0.2 v 0.1 h -0.2 v 0.5 c 0,0.1 0,0.2 0.1,0.2 0,0 0.1,0 0.1,0 v 0.1 c 0,0 -0.1,0 -0.1,0 -0.1,0 -0.1,0 -0.2,-0.1 0,0 -0.1,-0.1 -0.1,-0.2 V 356 h -0.1 v -0.1 h 0.1 v -0.2 z"
           id="path1112" />
        <path
           d="m 235.1,356.3 c 0,0.3 -0.2,0.4 -0.4,0.4 -0.2,0 -0.4,-0.2 -0.4,-0.4 0,-0.3 0.2,-0.4 0.4,-0.4 0.2,0 0.4,0.1 0.4,0.4 z m -0.7,0 c 0,0.2 0.1,0.3 0.3,0.3 0.1,0 0.3,-0.1 0.3,-0.3 0,-0.1 -0.1,-0.3 -0.3,-0.3 -0.2,0 -0.3,0.1 -0.3,0.3 z"
           id="path1114" />
        <path
           d="m 235.3,356.1 c 0,-0.1 0,-0.2 0,-0.3 h 0.1 v 0.2 0 c 0,-0.1 0.1,-0.2 0.2,-0.2 0,0 0,0 0,0 v 0.1 c 0,0 0,0 -0.1,0 -0.1,0 -0.2,0.1 -0.2,0.2 0,0 0,0 0,0.1 v 0.4 h -0.2 v -0.5 z"
           id="path1116" />
        <path
           d="m 236,355.6 c 0,0.1 0,0.1 0,0 -0.2,0.1 -0.2,0.1 -0.2,0 0,0 0.1,-0.1 0.2,0 0,-0.1 0,0 0,0 z m -0.2,1.1 v -0.8 h 0.2 v 0.8 z"
           id="path1118" />
        <path
           d="m 236.2,356.6 c 0,0 0.1,0.1 0.2,0.1 0.1,0 0.2,-0.1 0.2,-0.1 0,-0.1 0,-0.1 -0.2,-0.2 -0.2,-0.1 -0.2,-0.1 -0.2,-0.2 0,-0.1 0.1,-0.2 0.3,-0.2 0.1,0 0.2,0 0.2,0.1 v 0.1 c 0,0 -0.1,0 -0.2,0 -0.1,0 -0.1,0.1 -0.1,0.1 0,0.1 0.1,0.1 0.2,0.1 0.1,0.1 0.2,0.1 0.2,0.3 0,0.1 -0.1,0.3 -0.3,0.3 -0.1,0 -0.2,0 -0.2,-0.1 z"
           id="path1120" />
        <path
           d="m 237,356.3 c 0,0.2 0.1,0.3 0.3,0.3 0.1,0 0.2,0 0.2,0 v 0.1 c -0.1,0 -0.1,0.1 -0.3,0.1 -0.3,0 -0.4,-0.2 -0.4,-0.4 0,-0.2 0.1,-0.5 0.4,-0.5 0.3,0 0.3,0.2 0.3,0.4 0,0 0,0.1 0,0.1 H 237 Z m 0.5,-0.1 c 0,-0.1 0,-0.2 -0.2,-0.2 -0.2,0 -0.2,0.1 -0.2,0.2 z m 0,-0.7 -0.2,0.2 h -0.1 l 0.2,-0.2 z"
           id="path1122" />
        <path
           d="m 238.2,356.2 c 0,-0.1 0,-0.2 0,-0.3 h 0.1 v 0.1 0 c 0.1,-0.1 0.2,-0.2 0.3,-0.2 0.2,0 0.4,0.2 0.4,0.4 0,0.3 -0.2,0.5 -0.4,0.5 -0.1,0 -0.2,0 -0.3,-0.1 v 0 0.5 h -0.2 v -0.9 z m 0.1,0.2 c 0,0 0,0 0,0 0,0.2 0.1,0.2 0.2,0.2 0.2,0 0.3,-0.1 0.3,-0.3 0,-0.2 -0.1,-0.3 -0.3,-0.3 -0.1,0 -0.2,0.1 -0.2,0.2 0,0 0,0 0,0.1 z"
           id="path1124" />
        <path
           d="m 239.9,356.3 c 0,0.3 -0.2,0.4 -0.4,0.4 -0.2,0 -0.4,-0.2 -0.4,-0.4 0,-0.3 0.2,-0.4 0.4,-0.4 0.2,0 0.4,0.1 0.4,0.4 z m -0.7,0 c 0,0.2 0.1,0.3 0.3,0.3 0.1,0 0.3,-0.1 0.3,-0.3 0,-0.1 -0.1,-0.3 -0.3,-0.3 -0.2,0 -0.3,0.1 -0.3,0.3 z"
           id="path1126" />
        <path
           d="m 240.8,356.5 c 0,0.1 0,0.2 0,0.2 h -0.1 v -0.1 0 c 0,0.1 -0.1,0.2 -0.3,0.2 -0.1,0 -0.3,-0.1 -0.3,-0.4 v -0.5 h 0.2 v 0.5 c 0,0.2 0,0.3 0.2,0.3 0.1,0 0.2,-0.1 0.2,-0.1 0,0 0,-0.1 0,-0.1 V 356 h 0.2 v 0.5 z"
           id="path1128" />
        <path
           d="m 241.1,356.1 c 0,-0.1 0,-0.2 0,-0.3 h 0.1 v 0.2 0 c 0,-0.1 0.1,-0.2 0.2,-0.2 0,0 0,0 0,0 v 0.1 c 0,0 0,0 -0.1,0 -0.1,0 -0.2,0.1 -0.2,0.2 0,0 0,0 0,0.1 v 0.4 h -0.2 v -0.5 z"
           id="path1130" />
        <path
           d="m 242,355.9 0.1,0.4 c 0,0.1 0,0.2 0.1,0.3 v 0 c 0,-0.1 0,-0.2 0.1,-0.3 l 0.1,-0.4 h 0.1 l 0.1,0.4 c 0,0.1 0.1,0.2 0.1,0.3 v 0 c 0,-0.1 0,-0.2 0.1,-0.3 l 0.1,-0.4 h 0.2 l -0.3,0.8 h -0.1 l -0.1,-0.4 c 0,-0.1 -0.1,-0.2 -0.1,-0.3 v 0 c 0,0.1 0,0.2 -0.1,0.3 l -0.1,0.4 h -0.1 l -0.3,-0.8 z"
           id="path1132" />
        <path
           d="m 243.3,355.9 0.1,0.4 c 0,0.1 0,0.2 0.1,0.3 v 0 c 0,-0.1 0,-0.2 0.1,-0.3 l 0.1,-0.4 h 0.1 l 0.1,0.4 c 0,0.1 0.1,0.2 0.1,0.3 v 0 c 0,-0.1 0,-0.2 0.1,-0.3 l 0.1,-0.4 h 0.2 l -0.3,0.8 H 244 l -0.1,-0.4 c 0,-0.1 -0.1,-0.2 -0.1,-0.3 v 0 c 0,0.1 0,0.2 -0.1,0.3 l -0.1,0.4 h -0.1 l -0.3,-0.8 z"
           id="path1134" />
        <path
           d="m 244.6,355.9 0.1,0.4 c 0,0.1 0,0.2 0.1,0.3 v 0 c 0,-0.1 0,-0.2 0.1,-0.3 l 0.1,-0.4 h 0.1 l 0.1,0.4 c 0,0.1 0.1,0.2 0.1,0.3 v 0 c 0,-0.1 0,-0.2 0.1,-0.3 l 0.1,-0.4 h 0.2 l -0.3,0.8 h -0.1 l -0.1,-0.4 c 0,-0.1 -0.1,-0.2 -0.1,-0.3 v 0 c 0,0.1 0,0.2 -0.1,0.3 l -0.1,0.4 h -0.1 l -0.3,-0.8 z"
           id="path1136" />
        <path
           d="m 245.8,356.7 c -0.1,0 -0.1,0 -0.1,-0.1 0,-0.1 0,-0.1 0.1,-0.1 0.1,0 0.1,0 0.1,0.1 0.1,0.1 0,0.1 -0.1,0.1 z"
           id="path1138" />
        <path
           d="m 246.1,355.5 h 0.2 v 0.5 0 c 0.1,-0.1 0.2,-0.2 0.3,-0.2 0.2,0 0.4,0.2 0.4,0.4 0,0.3 -0.2,0.5 -0.4,0.5 -0.1,0 -0.2,0 -0.3,-0.2 v 0 0.1 h -0.1 c 0,-0.1 0,-0.1 0,-0.2 v -0.9 z m 0.2,0.9 c 0,0 0,0 0,0 0,0.2 0.1,0.2 0.2,0.2 0.2,0 0.3,-0.1 0.3,-0.3 0,-0.2 -0.1,-0.3 -0.3,-0.3 -0.1,0 -0.2,0.1 -0.2,0.2 0,0 0,0 0,0.1 z"
           id="path1140" />
        <path
           d="m 247.9,356.3 c 0,0.3 -0.2,0.4 -0.4,0.4 -0.2,0 -0.4,-0.2 -0.4,-0.4 0,-0.3 0.2,-0.4 0.4,-0.4 0.2,0 0.4,0.1 0.4,0.4 z m -0.7,0 c 0,0.2 0.1,0.3 0.3,0.3 0.1,0 0.3,-0.1 0.3,-0.3 0,-0.1 -0.1,-0.3 -0.3,-0.3 -0.2,0 -0.3,0.1 -0.3,0.3 z"
           id="path1142" />
        <path
           d="m 248.1,356.1 c 0,-0.1 0,-0.2 0,-0.2 h 0.1 v 0.1 0 c 0,-0.1 0.1,-0.2 0.3,-0.2 0.1,0 0.3,0.1 0.3,0.4 v 0.5 h -0.2 v -0.5 c 0,-0.1 -0.1,-0.2 -0.2,-0.2 -0.1,0 -0.2,0.1 -0.2,0.2 0,0 0,0 0,0.1 v 0.5 H 248 v -0.7 z"
           id="path1144" />
        <path
           d="m 249.1,355.9 0.2,0.5 c 0,0.1 0.1,0.1 0.1,0.2 v 0 c 0,-0.1 0,-0.1 0.1,-0.2 l 0.2,-0.5 h 0.2 l -0.3,0.8 h -0.1 l -0.3,-0.8 z"
           id="path1146" />
        <path
           d="m 250,355.6 c 0,0.1 0,0.1 0,0 -0.2,0.1 -0.2,0.1 -0.2,0 0,0 0.1,-0.1 0.2,0 0,-0.1 0,0 0,0 z m -0.1,1.1 v -0.8 h 0.2 v 0.8 z"
           id="path1148" />
        <path
           d="m 250.3,355.5 h 0.2 v 1.2 h -0.2 z"
           id="path1150" />
        <path
           d="m 250.7,355.5 h 0.2 v 1.2 h -0.2 z"
           id="path1152" />
        <path
           d="m 251.7,356.5 c 0,0.1 0,0.1 0,0.2 h -0.1 v -0.1 0 c 0,0.1 -0.1,0.1 -0.3,0.1 -0.2,0 -0.3,-0.1 -0.3,-0.2 0,-0.2 0.2,-0.3 0.5,-0.3 v 0 c 0,-0.1 0,-0.2 -0.2,-0.2 -0.1,0 -0.2,0 -0.2,0.1 V 356 c 0.1,0 0.2,-0.1 0.3,-0.1 0.3,0 0.3,0.2 0.3,0.3 z m -0.2,-0.2 c -0.2,0 -0.4,0 -0.4,0.2 0,0.1 0.1,0.1 0.1,0.1 0.1,0 0.2,-0.1 0.2,-0.1 0,0 0,0 0,0 v -0.2 z"
           id="path1154" />
        <path
           d="m 251.9,356.1 c 0,-0.1 0,-0.2 0,-0.3 h 0.1 v 0.2 0 c 0,-0.1 0.1,-0.2 0.2,-0.2 0,0 0,0 0,0 v 0.1 c 0,0 0,0 -0.1,0 -0.1,0 -0.2,0.1 -0.2,0.2 0,0 0,0 0,0.1 v 0.4 h -0.2 v -0.5 z"
           id="path1156" />
        <path
           d="m 252.5,356.6 c 0,0 0.1,0.1 0.2,0.1 0.1,0 0.2,-0.1 0.2,-0.1 0,-0.1 0,-0.1 -0.2,-0.2 -0.2,-0.1 -0.2,-0.1 -0.2,-0.2 0,-0.1 0.1,-0.2 0.3,-0.2 0.1,0 0.2,0 0.2,0.1 v 0.1 c 0,0 -0.1,0 -0.2,0 -0.1,0 -0.1,0.1 -0.1,0.1 0,0.1 0.1,0.1 0.2,0.1 0.1,0.1 0.2,0.1 0.2,0.3 0,0.1 -0.1,0.3 -0.3,0.3 -0.1,0 -0.2,0 -0.2,-0.1 z"
           id="path1158" />
        <path
           d="m 253.2,356.7 c -0.1,0 -0.1,0 -0.1,-0.1 0,-0.1 0,-0.1 0.1,-0.1 0.1,0 0.1,0 0.1,0.1 0,0.1 0,0.1 -0.1,0.1 z"
           id="path1160" />
        <path
           d="m 254.1,356.7 c 0,0 -0.1,0.1 -0.2,0.1 -0.3,0 -0.4,-0.2 -0.4,-0.4 0,-0.3 0.2,-0.4 0.5,-0.4 0.1,0 0.2,0 0.2,0 v 0.1 c 0,0 -0.1,0 -0.2,0 -0.2,0 -0.3,0.1 -0.3,0.3 0,0.2 0.1,0.3 0.3,0.3 0.1,0 0.1,0 0.2,0 z"
           id="path1162" />
        <path
           d="m 254.3,355.5 h 0.2 v 0.5 0 c 0,0 0.1,-0.1 0.1,-0.1 0,0 0.1,0 0.2,0 0.1,0 0.3,0.1 0.3,0.4 v 0.5 h -0.2 v -0.5 c 0,-0.1 -0.1,-0.3 -0.2,-0.3 -0.1,0 -0.2,0.1 -0.2,0.2 0,0 0,0 0,0.1 v 0.5 h -0.2 z"
           id="path1164" />
        <path
           d="m 256.1,355.6 c 0.3,0 0.5,0.2 0.5,0.5 0,0.3 -0.2,0.5 -0.5,0.5 -0.3,0 -0.5,-0.2 -0.5,-0.5 -0.1,-0.3 0.2,-0.5 0.5,-0.5 z m 0,0.1 c -0.2,0 -0.4,0.2 -0.4,0.5 0,0.3 0.2,0.5 0.4,0.5 0.2,0 0.4,-0.2 0.4,-0.5 0,-0.3 -0.2,-0.5 -0.4,-0.5 z m 0.2,0.2 c 0,0 -0.1,0 -0.2,0 -0.2,0 -0.2,0.1 -0.2,0.2 0,0.1 0.1,0.2 0.2,0.2 0.1,0 0.1,0 0.2,0 v 0.1 c -0.1,0 -0.1,0.1 -0.2,0.1 -0.2,0 -0.3,-0.1 -0.3,-0.3 0,-0.2 0.2,-0.3 0.3,-0.3 0.1,-0.1 0.2,-0.1 0.2,0 z"
           id="path1166" />
        <path
           d="m 257.5,356.7 v 0 l 0.1,-0.2 c 0.3,-0.3 0.4,-0.4 0.4,-0.6 0,-0.1 -0.1,-0.2 -0.2,-0.2 -0.1,0 -0.2,0.1 -0.2,0.1 v -0.1 c 0.1,-0.1 0.2,-0.1 0.3,-0.1 0.2,0 0.3,0.2 0.3,0.3 0,0.2 -0.2,0.4 -0.4,0.6 l -0.1,0.1 v 0 h 0.5 v 0.1 z"
           id="path1168" />
        <path
           d="m 259.2,356.1 c 0,0.4 -0.1,0.6 -0.4,0.6 -0.2,0 -0.4,-0.2 -0.4,-0.6 0,-0.4 0.2,-0.6 0.4,-0.6 0.3,0.1 0.4,0.3 0.4,0.6 z m -0.6,0.1 c 0,0.3 0.1,0.5 0.2,0.5 0.2,0 0.2,-0.2 0.2,-0.5 0,-0.3 -0.1,-0.5 -0.2,-0.5 -0.1,0 -0.2,0.2 -0.2,0.5 z"
           id="path1170" />
        <path
           d="m 260.1,356.1 c 0,0.4 -0.1,0.6 -0.4,0.6 -0.2,0 -0.4,-0.2 -0.4,-0.6 0,-0.4 0.2,-0.6 0.4,-0.6 0.2,0.1 0.4,0.3 0.4,0.6 z m -0.6,0.1 c 0,0.3 0.1,0.5 0.2,0.5 0.2,0 0.2,-0.2 0.2,-0.5 0,-0.3 -0.1,-0.5 -0.2,-0.5 -0.1,0 -0.2,0.2 -0.2,0.5 z"
           id="path1172" />
        <path
           d="m 260.3,356.6 c 0,0 0.1,0 0.1,0 0.1,0 0.2,0 0.2,-0.1 0.1,-0.1 0.1,-0.2 0.1,-0.3 v 0 c -0.1,0.1 -0.2,0.1 -0.3,0.1 -0.2,0 -0.3,-0.2 -0.3,-0.3 0,-0.2 0.2,-0.4 0.4,-0.4 0.2,0 0.4,0.2 0.4,0.5 0,0.2 -0.1,0.4 -0.2,0.5 -0.1,0.1 -0.2,0.1 -0.3,0.2 -0.1,0 -0.1,0 -0.1,0 z m 0.3,-0.9 c -0.1,0 -0.2,0.1 -0.2,0.3 0,0.1 0.1,0.2 0.2,0.2 0.1,0 0.2,-0.1 0.2,-0.1 0,0 0,0 0,-0.1 0,-0.2 -0.1,-0.3 -0.2,-0.3 z"
           id="path1174" />
      </g>
    </g>
  </g>
  <style
     type="text/css"
     id="style847">
	.st0{fill:none;}
	.st1{fill:#F7BC60;}
	.st2{fill:#FFFFFF;}
	.st3{fill:#FFFFFF;stroke:#010101;stroke-width:2;}
	.st4{fill:#1F60AC;stroke:#010101;stroke-width:2;}
</style>
</svg>
