<?xml version="1.0" encoding="UTF-8" standalone="no"?>
<svg
   xmlns:dc="http://purl.org/dc/elements/1.1/"
   xmlns:cc="http://creativecommons.org/ns#"
   xmlns:rdf="http://www.w3.org/1999/02/22-rdf-syntax-ns#"
   xmlns:svg="http://www.w3.org/2000/svg"
   xmlns="http://www.w3.org/2000/svg"
   xmlns:xlink="http://www.w3.org/1999/xlink"
   xmlns:sodipodi="http://sodipodi.sourceforge.net/DTD/sodipodi-0.dtd"
   xmlns:inkscape="http://www.inkscape.org/namespaces/inkscape"
   height="763"
   width="603"
   version="1.0"
   id="svg20"
   sodipodi:version="0.32"
   inkscape:version="0.91 r13725"
   sodipodi:docname="admin_concise.svg"
   inkscape:output_extension="org.inkscape.output.svg.inkscape">
  <metadata
     id="metadata31">
    <rdf:RDF>
      <cc:Work
         rdf:about="">
        <dc:format>image/svg+xml</dc:format>
        <dc:type
           rdf:resource="http://purl.org/dc/dcmitype/StillImage" />
        <dc:date>07-AUG-2006</dc:date>
        <dc:creator>
          <cc:Agent>
            <dc:title>Jérôme BLUM (wagner51)</dc:title>
          </cc:Agent>
        </dc:creator>
        <cc:license
           rdf:resource="http://creativecommons.org/licenses/GPL/2.0/" />
        <dc:coverage />
        <dc:description>Gabarit pour le Projet:Blasons de WIkipédia</dc:description>
        <dc:subject>
          <rdf:Bag>
            <rdf:li>blason suisse modèle gabarit projet blasons</rdf:li>
          </rdf:Bag>
        </dc:subject>
        <dc:language>fr</dc:language>
        <dc:title>Gabrit d'un blason suisse</dc:title>
      </cc:Work>
      <cc:License
         rdf:about="http://creativecommons.org/licenses/GPL/2.0/">
        <cc:permits
           rdf:resource="http://web.resource.org/cc/Reproduction" />
        <cc:permits
           rdf:resource="http://web.resource.org/cc/Distribution" />
        <cc:requires
           rdf:resource="http://web.resource.org/cc/Notice" />
        <cc:permits
           rdf:resource="http://web.resource.org/cc/DerivativeWorks" />
        <cc:requires
           rdf:resource="http://web.resource.org/cc/ShareAlike" />
        <cc:requires
           rdf:resource="http://web.resource.org/cc/SourceCode" />
      </cc:License>
    </rdf:RDF>
  </metadata>
  <defs
     id="defs29">
    <inkscape:perspective
       sodipodi:type="inkscape:persp3d"
       inkscape:vp_x="0 : 381.5 : 1"
       inkscape:vp_y="0 : 1000 : 0"
       inkscape:vp_z="603 : 381.5 : 1"
       inkscape:persp3d-origin="301.5 : 254.33333 : 1"
       id="perspective28" />
    <linearGradient
       id="linearGradient2893">
      <stop
         style="stop-color:#ffffff;stop-opacity:0.3137255;"
         offset="0"
         id="stop2895" />
      <stop
         id="stop2897"
         offset="0.19"
         style="stop-color:#ffffff;stop-opacity:0.25098041;" />
      <stop
         style="stop-color:#6b6b6b;stop-opacity:0.1254902;"
         offset="0.60000002"
         id="stop2901" />
      <stop
         style="stop-color:#000000;stop-opacity:0.1254902;"
         offset="1"
         id="stop2899" />
    </linearGradient>
    <linearGradient
       id="linearGradient2955">
      <stop
         style="stop-color:white;stop-opacity:0;"
         offset="0"
         id="stop2965" />
      <stop
         style="stop-color:black;stop-opacity:0.64583331;"
         offset="1"
         id="stop2959" />
    </linearGradient>
    <radialGradient
       inkscape:collect="always"
       xlink:href="#linearGradient2893"
       id="radialGradient3236"
       gradientUnits="userSpaceOnUse"
       gradientTransform="matrix(1.215027,1.531577e-24,1.464684e-23,1.266667,-839.1924,-490.4894)"
       cx="858.04236"
       cy="579.93323"
       fx="858.04236"
       fy="579.93323"
       r="300" />
    <inkscape:perspective
       id="perspective2532"
       inkscape:persp3d-origin="297.63751 : 280.63 : 1"
       inkscape:vp_z="595.27502 : 420.94501 : 1"
       inkscape:vp_y="0 : 1000 : 0"
       inkscape:vp_x="0 : 420.94501 : 1"
       sodipodi:type="inkscape:persp3d" />
  </defs>
  <sodipodi:namedview
     inkscape:window-height="1378"
     inkscape:window-width="2560"
     inkscape:pageshadow="2"
     inkscape:pageopacity="0.0"
     guidetolerance="10.0"
     gridtolerance="10.0"
     objecttolerance="10.0"
     borderopacity="1.0"
     bordercolor="#666666"
     pagecolor="#ffffff"
     id="base"
     inkscape:zoom="0.057907621"
     inkscape:cx="-1329.1228"
     inkscape:cy="-1411.4174"
     inkscape:window-x="-8"
     inkscape:window-y="-8"
     inkscape:current-layer="layer4"
     showgrid="false"
     showguides="false"
     inkscape:guide-bbox="true"
     inkscape:window-maximized="1">
    <sodipodi:guide
       orientation="horizontal"
       position="761.5"
       id="guide1885" />
    <sodipodi:guide
       orientation="vertical"
       position="1.5"
       id="guide1887" />
    <sodipodi:guide
       orientation="horizontal"
       position="1.5"
       id="guide1889" />
    <sodipodi:guide
       orientation="vertical"
       position="601.5"
       id="guide1891" />
    <sodipodi:guide
       orientation="vertical"
       position="301.50081"
       id="guide1893" />
  </sodipodi:namedview>
  <desc
     id="desc22">Coat of Arms of Canton of Freiburg (Fribourg)</desc>
  <g
     inkscape:groupmode="layer"
     id="layer1"
     inkscape:label="Fond écu"
     style="opacity:1;display:inline"
     sodipodi:insensitive="true">
    <path
       id="path1899"
       d="M 1.5,1.49998 L 1.5,460.3679 C 1.5,626.6785 135.81456,761.5 301.49999,761.5 C 467.18543,761.5 601.5,626.6785 601.5,460.3679 L 601.5,1.49998 L 1.5,1.49998 z"
       style="fill:#2b5df2;fill-opacity:1" />
  </g>
  <g
     inkscape:groupmode="layer"
     id="layer2"
     inkscape:label="Meubles"
     style="display:inline;opacity:1">
    <path
       d="m 177.54602,385.59409 c -25.556,-11.288 -54.507,-19.481 -76.021,-35.391 -9.136,13.943 -21.861,30.298 -31.149,40.118 l 1.658,11.271 -10.922,0.43 c 3.012,2.505 8.118,2.205 9.116,7.131 3.189,15.741 -4.194,21.802 -12.241,28.879 -5.357,-13.982 -6.492,-28.105 -7.306,-42.68 14.252,-15.674 25.469,-31 33.712,-47.022 7.766,-15.096 11.097,-19.616 25.354,-12.506 22.186,11.065 42.573,20.15 63.457,29.762"
       sodipodi:nodetypes="cccccsccssc"
       id="path3189"
       style="fill:#fcef3c;stroke:#000000;stroke-width:0;stroke-linecap:round;stroke-linejoin:round;stroke-miterlimit:4;stroke-dasharray:none"
       inkscape:connector-curvature="0" />
    <path
       d="m 246.88502,146.41709 c -0.343,-1.713 -0.409,-15.114 -0.409,-15.114 -17.666,-7.256 -27.68,-29.554 -22.028,-42.222999 2.79,-5.852 8.592,-5.035 8.491,1.142 -0.278,16.967999 16.273,33.675999 28.886,29.300999 21.298,-7.385 53.895,-4.272 56.941,-5.846 7.635,-3.944 -10.911,-22.843999 -13.96,-33.003999 -2.127,-7.09 5.531,-11.1 10.126,-4.186 6.262,9.42 17.521,36.332999 25.54,36.886999 6.746,0.466 32.318,-0.093 37.107,-4.075 19.397,-16.126999 43.214,-29.855999 60.088,-30.932999 7.862,-0.503 9.951,5.386 2.634,7.935 -12.11,4.22 -30.061,3.231 -47.422,23.817999 30.663,0.019 54.437,13.898 62.089,7.398 12.601,-10.701 28.109,-27.058999 38.087,-34.789999 4.983,-3.861 10.918,-1.605 8.056,3.772 -3.245,6.094 -13.201,17.213999 -21.278,24.014999 -17.477,14.713 -13.654,19.602 4.79,25.741 14.048,4.677 22.149,9.305 33.614,16.17 5.489,3.287 0.649,9.878 -6.957,7.06 -29.677,-13.283 -48.625,-20.766 -73.163,-30.854 -7.46,-3.067 -42.419,-10.778 -75.761,-5.728 -54.086,8.157 -77.374,-7.462 -104.697,9.727 l -0.383,14.251 -10.391,-0.464 z"
       sodipodi:nodetypes="cccssssssssscsssssscssccc"
       id="path3193"
       style="fill:#fcef3c;stroke:#000000;stroke-width:0;stroke-linecap:round;stroke-linejoin:round;stroke-miterlimit:4;stroke-dasharray:none"
       inkscape:connector-curvature="0" />
    <path
       id="path2493"
       d="m 549.17802,127.09409 c -11.464,-6.865 -22,-13.315 -35.31,-19.805 -14.082,-6.865 -18.148,-13.933999 -10.847,-21.621999 7.271,-7.655 16.823,-16.709 20.067,-22.804 2.862,-5.376 -3.073,-7.631 -8.055,-3.771 -9.979,7.732 -27.805,24.852 -39.783,36.245 -3.777,3.593 -46.934,-1.807 -74.202,0.597 17.361,-20.586 45.001,-25.898 57.11,-30.116 7.317,-2.549 5.229,-8.438 -2.633,-7.936 -16.875,1.079 -50.868,14.937 -67.84,33.598 -6.485,7.131 -16.953,5.549 -47.282,7.709 7.732,-12.524 22.159,-23.048 30.908,-29.618 5.037,-5.124 -2.11,-7.318 -6.976,-4.778 -10.751,5.612 -23.891,19.923 -33.525,28.401 -1.527,1.344 -3.111,2.5 -4.785,3.505 -4.492,-7.911 -8.734,-16.623 -11.805,-21.244 -4.722,-7.105 -12.592,-2.984 -10.406,4.302 1.692,5.641 8.027,13.899 12.264,20.943999 -9,2.266 -20.977,2.589 -39.061,2.941 -13.474,-0.541 -26.498,-16.937999 -26.22,-33.904999 0.101,-6.177 -5.7,-6.994 -8.491,-1.142 -5.652,12.669 4.604,31.575999 19.122,47.552999 0,0 -0.419,20.67 -0.077,22.383 l 12.812,0.945 0.627,-24.185 c 155.983,-7.005 127.579,-9.938 201.292,-4.968 26.473,1.785 39.367,9.577 69.045,22.86 7.608,2.821 9.54,-2.802 4.051,-6.089 z"
       style="fill:#fcef3c;stroke:#000000;stroke-width:0;stroke-linecap:round;stroke-linejoin:round;stroke-miterlimit:4;stroke-dasharray:none"
       inkscape:connector-curvature="0" />
    <path
       d="m 153.20602,183.16709 c 0.029,-5.224 6.97,2.24 19.146,-6.782 6.909,-5.119 19.422,-5.516 36.53,0.184 -26.832,-3.211 -35.075,10.109 -44.678,13.136 -4.907,1.547 -11.036,0.002 -10.998,-6.538 z"
       sodipodi:nodetypes="cscss"
       id="path3196"
       style="fill:#fcef3c;stroke:#000000;stroke-width:0;stroke-linecap:round;stroke-linejoin:round;stroke-miterlimit:4;stroke-dasharray:none"
       inkscape:connector-curvature="0" />
    <path
       d="m 459.30602,602.18509 c 0,0 -1.135,5.326 2.153,8.614 3.285,3.286 1.309,8.645 0.906,10.537 -2.21,10.398 -4.816,14.619 -9.859,14.619 -5.326,0 -6.547,-2.014 -6.547,-2.014 0,0 -7.052,1.221 -7.732,-2.746 -0.68,-3.966 2.834,-11.217 6.687,-16.091 3.853,-4.871 1.527,-13.118 1.527,-13.118 -14.501,-95.91 -42.625,-68.058 -82.29,-137.41 -8.977,-15.695 -14.577,-19.477 -36.158,-32.465 l 49.709,-22.136 55.102,36.097 0.578,0.575 c 4.712,13.064 6.085,27.082 6.299,41.429 -0.046,55.214 18.059,93.879 26.999,107.493 2.211,5.344 -2.362,8.974 -7.374,6.616 z"
       sodipodi:nodetypes="czscsssssccccccccssscccscccccsccccccsssssssssssc"
       id="path2206_5_"
       style="fill:#fcef3c;stroke:#000000;stroke-width:0;stroke-linecap:round;stroke-linejoin:round;stroke-miterlimit:4;stroke-dasharray:none"
       inkscape:connector-curvature="0" />
    <polygon
       id="polygon2497"
       points="-956.599,505.533 -956.599,505.533 -994.975,498.704 -994.975,492.67 -980.762,485.46 -957.827,485.46 -952.659,498.382 "
       style="fill:#fcef3c;stroke:#000000;stroke-width:0;stroke-linecap:round;stroke-linejoin:round;stroke-miterlimit:4;stroke-dasharray:none"
       transform="translate(1340.99,-59.253909)" />
    <path
       d="m 518.06802,621.15509 c -2.363,11.114 -5.149,15.626 -10.539,15.626 -5.693,0 -7,-2.153 -7,-2.153 0,0 -7.536,1.306 -8.264,-2.934 -0.727,-4.24 3.028,-11.993 7.147,-17.202 4.118,-5.208 1.184,-15.257 1.184,-15.257 -30.965,-120.1 -74.81,-62.45 -107.729,-137.339 -29.627,-67.4 -62.911,1.017 -111.375,-24.517 2.564,3.602 9.873,4.497 14.922,8.722 -17.702,-3.153 -28.926,-1.834 -48.613,-14.264 l 9.057,10.531 c -7.896,-5.954 -17.199,-8.413 -24.189,-15.725 0.259,3.361 4.663,6.053 7.2,10.325 -17.415,-11.243 -26.938,-17.132 -38.748,-26.507 -25.949,-20.608 -39.29,-42.123 -39.556,-64.597 -0.153,-12.876 0.543,-19.48 9.893,-38.282 1.174,-2.36 3.889,-7.292 4.968,-9.524 0.925,-1.912 -6.372,5.208 -5.719,3.222 0.938,-2.855 10.646,-18.819 12.503,-20.917 1.216,-1.374 -5.644,3.38 -5.221,1.622 0.63,-2.619 11.404,-17.479 13.593,-19.632 1.788,-1.758 -5.879,2.64 -4.786,0.438 1.873,-3.776 11.128,-13.401 14.173,-16.007 1.831,-1.567 -5.623,0.305 -3.729,-1.151 24.045,-18.499 28.714,-31.087 35.145,-41.958 -10.303,-5.906 -17.006,-12.613 -30.361,-13.029 -13.362,-0.416 -17.57,-3.903 -18.895,-9.978 -0.858,-3.938 19.689,-3.153 28.559,-2.762 -0.511,-5.654 -10.696,-5.434 -21.257,-5.76 -8.192,-0.254 -19.329,-1.353 -16.846,-7.626 3.108,-7.854 7.105,-9.746 13.229,-10.501 20.741,-2.563 23.107,-2.833 39.021,-11.684 13.522,-7.52 64.875,-12.85 72.009,6.462 8.128,22.005 9.505,36.389 12.194,57.433 l -3.873,-3.5 c 0.497,6.503 -0.829,13.67 -2.596,19.722 l -2.669,-5.093 c -0.173,12.538 -3.635,19.499 -6.068,26.938 l -2.14,-6.807 c 0.416,9.107 -3.979,17.358 -7.809,25.438 l -2.299,-6.711 c -0.42,13.925 -18.497,28.399 -5.88,44.796 5.392,7.005 16.415,7.325 29.697,18.083 60.094,48.671 97.757,1.422 140.84,75.331 20.007,34.325 -6.384,114.517 34.705,124.284 20.13,44.099 23.08,61.513 34.948,67.495 7.467,3.21 8.193,11.326 -2.103,14.476 0,0 -1.212,5.693 2.301,9.207 3.518,3.515 1.406,9.24 0.976,11.266 z"
       sodipodi:nodetypes="czscsssssccccccccssscccscccccsccccccsssssssssssc"
       id="path2206_41_"
       style="fill:#fcef3c;stroke:#000000;stroke-width:0;stroke-linecap:round;stroke-linejoin:round;stroke-miterlimit:4;stroke-dasharray:none"
       inkscape:connector-curvature="0" />
    <path
       d=""
       sodipodi:nodetypes="czscsssssccccccccssscccscccccsccccccsssssssssssc"
       id="path2206_1_"
       style="fill:#fcef3c;stroke:#000000;stroke-width:3;stroke-linecap:round;stroke-linejoin:round"
       inkscape:connector-curvature="0" />
    <path
       style="fill:#fcef3c;stroke:#000000;stroke-width:0;stroke-linecap:round;stroke-linejoin:round;stroke-miterlimit:4;stroke-dasharray:none"
       id="path3179"
       sodipodi:nodetypes="csccccccssc"
       d="m 279.61065,149.77222 c 13.5,-2.347 14.341,-9.407 27.204,-10.009 15.296,-0.725 23.138,12.044 52.988,6.08 -4.274,4.073 -2.192,12.687 -9.378,14.68 l 3.764,2.816 c -6.01,1.603 -11.865,3.585 -19.279,3.621 l 6.438,1.951 c -5.37,1.712 -13.145,3.735 -21.286,4 2.501,0.971 5.653,1.837 3.362,2.202 -3.964,0.631 -12.041,2.774 -15.963,2.803 -11.643,0.081 -18.428,-3.498 -23.544,-10.53"
       inkscape:connector-curvature="0" />
    <path
       style="fill:#fcef3c;stroke:#000000;stroke-width:0;stroke-linecap:round;stroke-linejoin:round;stroke-miterlimit:4;stroke-dasharray:none"
       id="path3181"
       sodipodi:nodetypes="cc"
       d="m 299.76465,162.48322 c -30.267,-8.139 14.767,-17.518 27.409,-6.339"
       inkscape:connector-curvature="0" />
    <path
       d="m 180.87502,380.23009 c -4.123,14.597 -33.414,10.545 -51.846,3.634 -27.37,-10.262 -31.278,1.714 -32.464,14.052 -2.043,21.236 -4.17,44.805 -8.046,51.225 -3.876,6.42 -1.587,12.29 -6.057,16.604 -4.471,4.315 -8.823,10.87 -8.68,14.892 0.143,4.021 7.294,4.745 7.294,4.745 0,0 0.111,1.914 5.374,2.737 4.309,0.674 8.361,-3.026 11.94,-13.035 0.652,-1.823 3.359,-7.954 0.543,-11.648 -2.818,-3.696 -1.33,-9.206 -1.33,-9.206 10.42,-6.061 5.814,-11.75 9.136,-42.747 2.78,-29.083 38.468,-2.78 59.357,2.18 27.979,6.646 31.045,6.805 52.815,-4.361"
       sodipodi:nodetypes="csscccccssc"
       id="path3187_4_"
       style="fill:#fcef3c;stroke:#000000;stroke-width:0;stroke-linecap:round;stroke-linejoin:round;stroke-miterlimit:4;stroke-dasharray:none"
       inkscape:connector-curvature="0" />
    <path
       d="m 438.85702,383.86109 c 47.752,-9.157 25.229,22.627 66.625,14.416 -4.91,9.97 -9.488,16.21 -20.059,17.34 -1.788,0.19 -6.75,-4.442 -8.341,-4.235 -1.692,0.222 4.537,5.582 1.279,4.808 -1.561,-0.371 -9.211,-5.367 -10.78,-5.658 -1.507,-0.28 4.724,5.565 3.267,5.176 -4.664,-1.246 -12.408,-4.371 -16.049,-6.636 -8.633,-5.371 -8.744,-15.664 -17.482,-17.107"
       sodipodi:nodetypes="ccssssssc"
       id="path3197"
       style="fill:#fcef3c;stroke:#000000;stroke-width:0;stroke-linecap:round;stroke-linejoin:round;stroke-miterlimit:4;stroke-dasharray:none"
       inkscape:connector-curvature="0" />
    <path
       style="fill:#fcef3c;stroke:#000000;stroke-width:0;stroke-linecap:round;stroke-linejoin:round;stroke-miterlimit:4;stroke-dasharray:none"
       id="rect3210"
       d="m 261.42002,128.12509 12.133,0 c 1.644,0 2.977,1.333 2.977,2.978 l 0,4.168 c 0,1.644 -1.333,2.977 -2.977,2.977 l -12.133,0 c -1.644,0 -2.978,-1.333 -2.978,-2.977 l 0,-4.168 c 10e-4,-1.646 1.334,-2.978 2.978,-2.978 z"
       inkscape:connector-curvature="0" />
    <path
       style="fill:none;stroke:#000000;stroke-width:0;stroke-linecap:round;stroke-linejoin:round;stroke-miterlimit:4;stroke-dasharray:none"
       id="path3212"
       d="m 264.45902,128.93309 0,5.391"
       inkscape:connector-curvature="0" />
    <path
       style="fill:none;stroke:#000000;stroke-width:0;stroke-linecap:round;stroke-linejoin:round;stroke-miterlimit:4;stroke-dasharray:none"
       id="path3214"
       d="m 270.33402,129.11509 0,5.633"
       inkscape:connector-curvature="0" />
    <path
       style="fill:none;stroke:#000000;stroke-width:0;stroke-linecap:round;stroke-linejoin:round;stroke-miterlimit:4;stroke-dasharray:none"
       id="path3229"
       sodipodi:nodetypes="cc"
       d="m 264.84702,211.67909 c -10.355,-0.13 -23.665,-3.644 -32.823,-8.192"
       inkscape:connector-curvature="0" />
    <path
       style="fill:none;stroke:#000000;stroke-width:0;stroke-linecap:round;stroke-linejoin:round;stroke-miterlimit:4;stroke-dasharray:none"
       d="m 174.33302,162.80209 c 8.156,2.589 24.761,4.795 19.575,-0.39"
       id="path2513"
       inkscape:connector-curvature="0" />
    <path
       style="fill:none;stroke:#000000;stroke-width:0;stroke-linecap:round;stroke-linejoin:round;stroke-miterlimit:4;stroke-dasharray:none"
       d="m 506.43902,618.85309 c 0,0 -3.365,6.811 -5.909,15.774"
       id="path2515"
       inkscape:connector-curvature="0" />
    <path
       style="fill:none;stroke:#000000;stroke-width:0;stroke-linecap:round;stroke-linejoin:round;stroke-miterlimit:4;stroke-dasharray:none"
       d="m 451.48602,619.18409 c 0,0 -3.147,6.371 -5.527,14.758"
       id="path2517"
       inkscape:connector-curvature="0" />
    <path
       style="fill:none;stroke:#000000;stroke-width:0;stroke-linecap:round;stroke-linejoin:round;stroke-miterlimit:4;stroke-dasharray:none"
       d="m 88.52602,471.49509 c 0,0 -3.971,5.896 -7.451,13.887"
       id="path2519"
       inkscape:connector-curvature="0" />
    <path
       style="fill:none;stroke:#000000;stroke-width:0;stroke-linecap:round;stroke-linejoin:round;stroke-miterlimit:4;stroke-dasharray:none"
       d="m 228.60302,154.31109 c 0,0 7.909,-7.085 16.311,-0.823"
       id="path2523"
       inkscape:connector-curvature="0" />
    <ellipse
       style="fill:none;stroke:#000000;stroke-width:0;stroke-linecap:round;stroke-linejoin:round;stroke-miterlimit:4;stroke-dasharray:none"
       cx="-1104.434"
       cy="212.694"
       rx="1.302"
       ry="2.4990001"
       id="ellipse2525"
       transform="translate(1340.99,-59.253909)" />
  </g>
  <g
     inkscape:groupmode="layer"
     id="layer3"
     inkscape:label="Reflet final"
     style="display:none"
     sodipodi:insensitive="true">
    <path
       style="fill:url(#radialGradient3236);fill-opacity:1"
       d="m 1.5,1.5 0,458.8679 C 1.5,626.67854 135.81454,761.5 301.49993,761.5 467.1854,761.5 601.5,626.67854 601.5,460.3679 L 601.5,1.5 1.5,1.5 Z"
       id="path2346"
       inkscape:connector-curvature="0" />
  </g>
  <g
     inkscape:groupmode="layer"
     id="layer4"
     inkscape:label="Contour final"
     style="display:inline"
     sodipodi:insensitive="true">
    <path
       style="fill:none;fill-opacity:1;stroke:#000000;stroke-width:5;stroke-miterlimit:4;stroke-dasharray:none;stroke-opacity:1"
       d="m 1.5,1.5 0,458.86794 C 1.5,626.67854 135.81454,761.5 301.49993,761.5 467.1854,761.5 601.5,626.67854 601.5,460.36794 L 601.5,1.5 1.5,1.5 Z"
       id="path3239"
       inkscape:connector-curvature="0" />
  </g>
</svg>
