<?xml version="1.0" encoding="UTF-8" standalone="no"?>
<svg
   id="e4873513-a385-46f5-8975-09ea43285dc9"
   data-name="Layer 1"
   width="723"
   height="474"
   viewBox="0 0 723 474"
   version="1.1"
   sodipodi:docname="icons.svg"
   inkscape:version="1.1 (c68e22c387, 2021-05-23)"
   xmlns:inkscape="http://www.inkscape.org/namespaces/inkscape"
   xmlns:sodipodi="http://sodipodi.sourceforge.net/DTD/sodipodi-0.dtd"
   xmlns="http://www.w3.org/2000/svg"
   xmlns:svg="http://www.w3.org/2000/svg">
  <defs
     id="defs89" />
  <sodipodi:namedview
     id="namedview87"
     pagecolor="#ffffff"
     bordercolor="#666666"
     borderopacity="1.0"
     inkscape:pageshadow="2"
     inkscape:pageopacity="0.0"
     inkscape:pagecheckerboard="0"
     showgrid="false"
     inkscape:snap-global="false"
     inkscape:zoom="1.4785615"
     inkscape:cx="361.5"
     inkscape:cy="237.05472"
     inkscape:window-width="2560"
     inkscape:window-height="1377"
     inkscape:window-x="2552"
     inkscape:window-y="-8"
     inkscape:window-maximized="1"
     inkscape:current-layer="e4873513-a385-46f5-8975-09ea43285dc9" />
  <path
     d="M597.11024,275h-43a9.5108,9.5108,0,0,1-9.5-9.5v-43a9.5108,9.5108,0,0,1,9.5-9.5h43a9.51081,9.51081,0,0,1,9.5,9.5v43A9.51081,9.51081,0,0,1,597.11024,275Zm-43-60a7.50836,7.50836,0,0,0-7.5,7.5v43a7.50836,7.50836,0,0,0,7.5,7.5h43a7.50836,7.50836,0,0,0,7.5-7.5v-43a7.50836,7.50836,0,0,0-7.5-7.5Z"
     fill="#ccc"
     id="path2"
     transform="translate(-238.5 -213)" />
  <path
     d="M699.11024,275h-43a9.5108,9.5108,0,0,1-9.5-9.5v-43a9.5108,9.5108,0,0,1,9.5-9.5h43a9.51081,9.51081,0,0,1,9.5,9.5v43A9.51081,9.51081,0,0,1,699.11024,275Zm-43-60a7.50836,7.50836,0,0,0-7.5,7.5v43a7.50836,7.50836,0,0,0,7.5,7.5h43a7.50836,7.50836,0,0,0,7.5-7.5v-43a7.50836,7.50836,0,0,0-7.5-7.5Z"
     transform="translate(-238.5 -213)"
     fill="#ccc"
     id="path12" />
  <path
     d="M495.11024,275h-43a9.5108,9.5108,0,0,1-9.5-9.5v-43a9.5108,9.5108,0,0,1,9.5-9.5h43a9.51081,9.51081,0,0,1,9.5,9.5v43A9.51081,9.51081,0,0,1,495.11024,275Zm-43-60a7.50836,7.50836,0,0,0-7.5,7.5v43a7.50836,7.50836,0,0,0,7.5,7.5h43a7.50836,7.50836,0,0,0,7.5-7.5v-43a7.50836,7.50836,0,0,0-7.5-7.5Z"
     transform="translate(-238.5 -213)"
     fill="#ccc"
     id="path18" />
  <path
     d="M467.11024,369h-43a9.5108,9.5108,0,0,1-9.5-9.5v-43a9.5108,9.5108,0,0,1,9.5-9.5h43a9.51081,9.51081,0,0,1,9.5,9.5v43A9.51081,9.51081,0,0,1,467.11024,369Zm-43-60a7.50836,7.50836,0,0,0-7.5,7.5v43a7.50836,7.50836,0,0,0,7.5,7.5h43a7.50836,7.50836,0,0,0,7.5-7.5v-43a7.50836,7.50836,0,0,0-7.5-7.5Z"
     transform="translate(-238.5 -213)"
     fill="#3f3d56"
     id="path26" />
  <path
     d="M459.61024,351.5h-28a3.00328,3.00328,0,0,1-3-3v-21a3.00328,3.00328,0,0,1,3-3h7.88232a2.98117,2.98117,0,0,1,2.55518,1.42725L444.246,329.5h15.36426a3.00328,3.00328,0,0,1,3,3v16A3.00328,3.00328,0,0,1,459.61024,351.5Z"
     transform="translate(-238.5 -213)"
     fill="#008c6f"
     id="path28" />
  <circle
     cx="101.16464"
     cy="139.20953"
     r="23.17166"
     fill="#ffb8b8"
     id="circle30" />
  <path
     d="M331.29858,489.32045q-.43775,0-.8794-.03869a10.38021,10.38021,0,0,1-9.31639-12.37426,9.7164,9.7164,0,0,1,.25474-.98673L287.15811,435.473a8.06134,8.06134,0,0,1-.56085-9.60845l.062-.07555,30.78362-30.35383a8.89853,8.89853,0,1,1,12.3784,12.78609l-22.29549,21.1959,24.40808,39.17454a9.87811,9.87811,0,0,1,1.37668.16953,10.38,10.38,0,0,1-2.01193,20.55926Z"
     transform="translate(-238.5 -213)"
     fill="#ffb8b8"
     id="path32" />
  <polygon
     points="139.328 461.701 150.895 461.701 156.397 417.088 139.326 417.089 139.328 461.701"
     fill="#ffb8b8"
     id="polygon34" />
  <path
     d="M374.87818,670.92506l22.778-.00092h.00093A14.51568,14.51568,0,0,1,412.17323,685.44v.47172l-37.29436.00138Z"
     transform="translate(-238.5 -213)"
     fill="#2f2e41"
     id="path36" />
  <polygon
     points="24.366 445.71 34.304 451.627 61.857 416.11 47.189 407.377 24.366 445.71"
     fill="#ffb8b8"
     id="polygon38" />
  <path
     d="M262.26292,653.95552l19.57165,11.65288.00079.00047a14.51569,14.51569,0,0,1,5.04581,19.89892l-.24134.40531-32.04448-19.07932Z"
     transform="translate(-238.5 -213)"
     fill="#2f2e41"
     id="path40" />
  <path
     d="M392.12393,658.94385h-12.9517a4.23772,4.23772,0,0,1-4.22149-3.79676l-13.05718-122.7374a1.41542,1.41542,0,0,0-2.69717-.433L335.641,584.13539l-41.70357,68.00266a4.26565,4.26565,0,0,1-5.32892,1.66575l-16.66024-7.33a4.24673,4.24673,0,0,1-1.93477-6.06413l38.33707-64.19208,11.75766-54.0852c-3.69795-23.455,12.155-58.326,12.31575-58.67614l.07854-.17044L376.17,446.21813l.219.26811C393.61024,503,404.10409,563.81843,396.35578,655.054A4.27417,4.27417,0,0,1,392.12393,658.94385Z"
     transform="translate(-238.5 -213)"
     fill="#2f2e41"
     id="path42" />
  <path
     d="M330.74325,469.00073l-.20338-.42749c-.0972-.20453-9.807-20.68365-17.292-42.57146a32.285,32.285,0,0,1,2.23858-25.87344,32.63737,32.63737,0,0,1,20.81263-16.00426h0a32.677,32.677,0,0,1,37.92777,19.56977c5.93722,14.84708,4.045,30.69453,2.26428,43.15723l-.03547.24968-.2271.10871Z"
     transform="translate(-238.5 -213)"
     fill="#008c6f"
     id="path44" />
  <path
     d="M367.75961,339.12034H330.96575V323.082c8.07584-3.20838,15.97846-5.93693,20.75551,0a16.03845,16.03845,0,0,1,16.03835,16.03833Z"
     transform="translate(-238.5 -213)"
     fill="#2f2e41"
     id="path46" />
  <path
     d="M328.92871,320.2517c-21.99606,0-28.15279,27.5712-28.15279,43.12551,0,8.67446,3.923,11.777,10.08754,12.8268l2.17708-11.611,5.099,12.11064c1.73162.00864,3.55077-.02487,5.43671-.05988l1.72886-3.55987,3.85526,3.496c15.44087.023,27.92062,2.27382,27.92062-13.2027C357.081,347.8229,351.68164,320.2517,328.92871,320.2517Z"
     transform="translate(-238.5 -213)"
     fill="#2f2e41"
     id="path48" />
  <path
     d="M426.69947,351.10915q.20986.38416.38766.7903a10.38022,10.38022,0,0,1-6.39269,14.10854,9.723,9.723,0,0,1-.98807.24952l-19.09943,49.40483a8.06133,8.06133,0,0,1-8.16325,5.09886l-.096-.01815-41.39664-12.46211a8.89852,8.89852,0,1,1,5.286-16.99313l29.29033,9.40381,22.67641-40.20174a9.87678,9.87678,0,0,1-.51127-1.28942,10.38005,10.38005,0,0,1,19.0069-8.09131Z"
     transform="translate(-238.5 -213)"
     fill="#ffb8b8"
     id="path50" />
  <path
     d="M725.11024,369h-43a9.5108,9.5108,0,0,1-9.5-9.5v-43a9.5108,9.5108,0,0,1,9.5-9.5h43a9.51081,9.51081,0,0,1,9.5,9.5v43A9.51081,9.51081,0,0,1,725.11024,369Zm-43-60a7.50836,7.50836,0,0,0-7.5,7.5v43a7.50836,7.50836,0,0,0,7.5,7.5h43a7.50836,7.50836,0,0,0,7.5-7.5v-43a7.50836,7.50836,0,0,0-7.5-7.5Z"
     transform="translate(-238.5 -213)"
     fill="#3f3d56"
     id="path52" />
  <path
     d="M703.61024,338.5a9,9,0,1,1,9-9A9.01015,9.01015,0,0,1,703.61024,338.5Z"
     transform="translate(-238.5 -213)"
     fill="#008c6f"
     id="path54" />
  <path
     d="M712.5962,355.5H694.62427a3.7391,3.7391,0,0,1-3.93136-3.5c0-6.34082,5.79448-11.5,12.91733-11.5s12.91732,5.15918,12.91732,11.5A3.7391,3.7391,0,0,1,712.5962,355.5Z"
     transform="translate(-238.5 -213)"
     fill="#008c6f"
     id="path56" />
  <polygon
     points="601.057 461.529 588.798 461.528 582.965 414.24 601.06 414.241 601.057 461.529"
     fill="#a0616a"
     id="polygon58" />
  <path
     d="M580.0404,458.02535h23.64387a0,0,0,0,1,0,0v14.88687a0,0,0,0,1,0,0H565.15355a0,0,0,0,1,0,0v0A14.88686,14.88686,0,0,1,580.0404,458.02535Z"
     fill="#2f2e41"
     id="path60" />
  <polygon
     points="690.811 427.625 681.753 435.888 645.573 404.885 658.941 392.69 690.811 427.625"
     fill="#a0616a"
     id="polygon62" />
  <path
     d="M915.29591,647.30643h23.64388a0,0,0,0,1,0,0V662.1933a0,0,0,0,1,0,0H900.40906a0,0,0,0,1,0,0v0A14.88685,14.88685,0,0,1,915.29591,647.30643Z"
     transform="translate(-439.52766 577.85746) rotate(-42.37303)"
     fill="#2f2e41"
     id="path64" />
  <path
     d="M827.50184,663.71436a4.47341,4.47341,0,0,1-4.44434-3.856l-10.68286-73.88965a42.89891,42.89891,0,0,1-.15063-11.12061l10.41186-88.97509,66.49805,5.58349-10.03638,84.30567,37.96607,47.33984a4.48912,4.48912,0,0,1-.55518,6.209l-9.55884,8.32519a4.49953,4.49953,0,0,1-6.37646-.46973l-35.97437-42.09765a56.53874,56.53874,0,0,1-11.71924-22.562l-5.13574-20.0293a1.4999,1.4999,0,0,0-2.87036-.11768l-6.793,19.62354,4.29761,86.43115a4.50989,4.50989,0,0,1-4.24463,4.71631l-10.37256.57617Q827.63051,663.71435,827.50184,663.71436Z"
     transform="translate(-238.5 -213)"
     fill="#2f2e41"
     id="path66" />
  <circle
     cx="625.95434"
     cy="128.08067"
     r="24.56103"
     fill="#a0616a"
     id="circle68" />
  <path
     d="M721.797,369.63635a10.05579,10.05579,0,0,0,14.80212,4.31892l32.20332,19.50956-2.50289-16.49956-27.25773-17.6152A10.11027,10.11027,0,0,0,721.797,369.63635Z"
     transform="translate(-238.5 -213)"
     fill="#a0616a"
     id="path70" />
  <path
     d="M863.31336,502.856h0c-13.04492.00049-26.61987-4.04639-40.3479-12.0293a4.99126,4.99126,0,0,1-2.1709-6.06494l12.769-34.40674-2.9043-40.54053c-.98779-13.79052,5.88721-26.88086,17.51514-33.34912A31.59424,31.59424,0,0,1,875.736,374.8335a33.97516,33.97516,0,0,1,19.57568,22.31l4.09888,14.26075a87.49009,87.49009,0,0,1-1.63745,53.10156l-11.875,33.34131-.30811.18408C885.50916,498.08008,877.36024,502.855,863.31336,502.856Z"
     transform="translate(-238.5 -213)"
     fill="#ccc"
     id="path72" />
  <path
     d="M738.84461,381.082a4.99665,4.99665,0,0,1,.05329-5.61343l6.2231-8.98822a5.008,5.008,0,0,1,6.41732-1.58971L797.689,388.89129l50.92084-5.10461a14.23294,14.23294,0,0,1,14.85371,9.68A14.14226,14.14226,0,0,1,850.16387,412l-47.48465.48187a29.20591,29.20591,0,0,1-14.30956-3.58864l-47.76518-26.19435A5.01944,5.01944,0,0,1,738.84461,381.082Z"
     transform="translate(-238.5 -213)"
     fill="#ccc"
     id="path74" />
  <path
     d="M885.62014,524.83843a10.05576,10.05576,0,0,0,.46288-15.41238l11.99337-33.01467-16.53924,3.51025L871.33246,510.7298a10.11027,10.11027,0,0,0,14.28768,14.10863Z"
     transform="translate(-238.5 -213)"
     fill="#a0616a"
     id="path76" />
  <path
     d="M890.0221,505.63623a4.96759,4.96759,0,0,1-1.71777-.30566l-10.26319-3.76612a5.00811,5.00811,0,0,1-3.15063-5.8125l11.64038-50.69922L868.8014,397.04639a14.22708,14.22708,0,0,1,5.63891-16.8086,14.14225,14.14225,0,0,1,21.27955,8.21875l12.39233,45.84131a29.207,29.207,0,0,1,.12036,14.752l-13.35815,52.813a4.99762,4.99762,0,0,1-4.84766,3.77344h-.00464Z"
     transform="translate(-238.5 -213)"
     fill="#ccc"
     id="path78" />
  <path
     d="M866.07639,358.41138c1.24542-5.168,1.8609-8.0697,3.09469-13.24056.82632-3.46317-1.667-7.00916-4.79545-8.62753s-6.7549-1.80418-10.25016-2.14678-7.16207-.95358-9.88621-3.202c-3.65739-3.01872-4.70327-8.64152-2.90463-13.0636a14.85471,14.85471,0,0,1,10.67623-8.53664,21.20272,21.20272,0,0,1,13.72679,2.11338c1.6487-3.87357,6.42628-5.55773,10.5308-4.882s7.66912,3.16729,11.0053,5.68586c6.20391,4.68352,12.56973,10.36122,13.94657,18.08221,1.32965,7.45634-2.45248,14.98109-7.51132,20.55483a45.48369,45.48369,0,0,1-26.28237,14.26285A9.30922,9.30922,0,0,1,866.07639,358.41138Z"
     transform="translate(-238.5 -213)"
     id="path80" />
  <path
     d="M960.5,687h-192a1,1,0,0,1,0-2h192a1,1,0,0,1,0,2Z"
     transform="translate(-238.5 -213)"
     fill="#ccc"
     id="path82" />
  <path
     d="M431.5,687h-192a1,1,0,0,1,0-2h192a1,1,0,0,1,0,2Z"
     transform="translate(-238.5 -213)"
     fill="#ccc"
     id="path84" />
  <g
     data-name="Group"
     id="g912"
     transform="matrix(0.53326757,0,0,0.53326757,412.82626,3.3718431)"
     style="fill:#cccccc;fill-opacity:1">
    <path
       data-name="Compound Path"
       d="M 87.7,11.7 A 3,3 0 0 0 83.6,11.6 L 38.5,51.3 a 3,3 0 0 0 -0.1,4.4 l 9.5,9.5 a 3,3 0 0 0 2.1,0.9 h 0.1 a 3,3 0 0 0 2.2,-1 L 92.1,20 A 3,3 0 0 0 92,15.9 Z m -37.8,47 -5,-5 6.9,-6.1 4.2,4.2 z"
       id="path908"
       style="fill:#cccccc;fill-opacity:1" />
    <path
       data-name="Path"
       d="m 35.3,59.4 a 3,3 0 0 0 -2.1,-0.9 v 0 c -3.6,0 -10.3,1.6 -14.9,12.6 -2.7,6.5 -7.1,9.2 -8.1,9.5 a 3,3 0 0 0 -0.9,5.8 39.9,39.9 0 0 0 13.5,2.7 21.5,21.5 0 0 0 10.5,-2.5 C 38.8,83.6 42.4,78 44.2,70 a 3,3 0 0 0 -0.8,-2.8 z"
       id="path910"
       style="fill:#cccccc;fill-opacity:1" />
  </g>
  <g
     id="g8132"
     transform="matrix(0.63033139,0,0,0.63033139,72.100058,60.493845)"
     style="fill:#cccccc;fill-opacity:1">
    <rect
       x="246.30743"
       y="-30.01531"
       width="24.470703"
       height="2"
       id="rect931"
       style="fill:#cccccc;fill-opacity:1" />
    <rect
       x="246.30743"
       y="-24.460623"
       width="24.470703"
       height="2"
       id="rect933"
       style="fill:#cccccc;fill-opacity:1" />
    <rect
       x="232.05835"
       y="-39.534966"
       width="1.4736938"
       height="1.4737549"
       id="rect935"
       style="fill:#cccccc;fill-opacity:1" />
    <rect
       x="283.55353"
       y="-39.534966"
       width="1.4735718"
       height="1.4737549"
       id="rect937"
       style="fill:#cccccc;fill-opacity:1" />
    <path
       d="m 273.39044,-11.994864 7.05859,-7.319397 v -5.923767 h 4.91309 c 3.07708,0 5.58099,-2.50293 5.58099,-5.58014 V -48.38256 c 0,-3.077148 -2.50391,-5.581054 -5.58099,-5.581054 h -4.91309 v -27.554749 h -43.8125 v 27.554749 h -4.91309 c -3.0772,0 -5.58111,2.503906 -5.58111,5.581054 v 17.564393 c 0,3.077209 2.50391,5.580139 5.58111,5.580139 h 4.91309 v 13.243164 z m 0.57519,-3.477295 v -3.245362 h 3.12988 z m 4.4834,-5.245362 h -6.4834 v 6.722657 h -33.3291 v -20.463868 h 39.8125 z m 8.57807,-15.343689 h -5.47358 v -5.473754 h 5.47358 z m -48.39057,-43.457153 h 39.8125 v 28.575196 h -39.8125 z m -3.10449,43.457153 h -5.4737 v -5.473754 h 5.4737 z m -3.8086,-8.740356 c -1.9746,0 -3.58111,-1.606384 -3.58111,-3.580994 0,-1.974548 1.60651,-3.581054 3.58111,-3.581054 h 4.91309 v 3.020446 h 43.8125 v -3.020446 h 4.91309 c 1.97461,0 3.58099,1.606506 3.58099,3.581054 0,1.97461 -1.60638,3.580994 -3.58099,3.580994 z"
       id="path939"
       style="fill:#cccccc;fill-opacity:1" />
  </g>
  <path
     d="m 348.16903,39.600673 c -1.6942,0 -3.30773,0.564734 -4.67922,1.613524 l -12.26278,-6.776801 c 0.24203,-0.726085 0.40338,-1.613524 0.40338,-2.500962 0,-0.887438 -0.16135,-1.6942 -0.40338,-2.500962 l 12.90819,-7.180182 c 1.21014,0.726086 2.66231,1.129467 4.03381,1.129467 4.19516,0 7.66424,-3.469077 7.66424,-7.664239 0,-4.195162 -3.46908,-7.5835632 -7.66424,-7.5835632 -4.19516,0 -7.66424,3.4690772 -7.66424,7.6642392 0,1.210143 0.24203,2.33961 0.80676,3.388401 l -12.34346,6.938153 c -1.37149,-1.210143 -3.06569,-1.855553 -5.00192,-1.855553 -4.19516,0 -7.66424,3.469077 -7.66424,7.664239 0,4.195163 3.46908,7.664239 7.66424,7.664239 1.85555,0 3.63043,-0.645409 5.00192,-1.855552 l 12.10143,6.696124 c -0.3227,0.887438 -0.56473,1.855553 -0.56473,2.823667 0,4.195162 3.46908,7.664239 7.66424,7.664239 4.19516,0 7.66424,-3.469077 7.66424,-7.664239 0,-4.195162 -3.46908,-7.664239 -7.66424,-7.664239 z"
     id="path960"
     style="stroke-width:0.806762;fill:#cccccc;fill-opacity:1" />
</svg>
