<?xml version="1.0" encoding="UTF-8" standalone="no"?>
<svg
   xmlns:dc="http://purl.org/dc/elements/1.1/"
   xmlns:cc="http://creativecommons.org/ns#"
   xmlns:rdf="http://www.w3.org/1999/02/22-rdf-syntax-ns#"
   xmlns:svg="http://www.w3.org/2000/svg"
   xmlns="http://www.w3.org/2000/svg"
   xmlns:sodipodi="http://sodipodi.sourceforge.net/DTD/sodipodi-0.dtd"
   xmlns:inkscape="http://www.inkscape.org/namespaces/inkscape"
   id="0b9b7173-8d17-4004-875f-329f7c0a9383"
   data-name="Layer 1"
   width="926"
   height="494.44559"
   viewBox="0 0 925.99998 494.44558"
   version="1.1"
   sodipodi:docname="sysadmin.svg"
   inkscape:version="1.0 (4035a4fb49, 2020-05-01)">
  <metadata
     id="metadata244">
    <rdf:RDF>
      <cc:Work
         rdf:about="">
        <dc:format>image/svg+xml</dc:format>
        <dc:type
           rdf:resource="http://purl.org/dc/dcmitype/StillImage" />
        <dc:title>server status</dc:title>
      </cc:Work>
    </rdf:RDF>
  </metadata>
  <sodipodi:namedview
     inkscape:document-rotation="0"
     pagecolor="#ffffff"
     bordercolor="#666666"
     borderopacity="1"
     objecttolerance="10"
     gridtolerance="10"
     guidetolerance="10"
     inkscape:pageopacity="0"
     inkscape:pageshadow="2"
     inkscape:window-width="1920"
     inkscape:window-height="1017"
     id="namedview242"
     showgrid="false"
     inkscape:zoom="1.1634076"
     inkscape:cx="467.42901"
     inkscape:cy="140.21633"
     inkscape:window-x="-8"
     inkscape:window-y="-8"
     inkscape:window-maximized="1"
     inkscape:current-layer="0b9b7173-8d17-4004-875f-329f7c0a9383" />
  <defs
     id="defs9">
    <linearGradient
       id="214c5cce-d3ab-4a80-8eba-ba3719b3e789"
       x1="1958.6"
       y1="638.33002"
       x2="1958.6"
       y2="355.69"
       gradientTransform="matrix(-1,0,0,1,2766,0)"
       gradientUnits="userSpaceOnUse">
      <stop
         offset="0"
         stop-color="gray"
         stop-opacity="0.25"
         id="stop2" />
      <stop
         offset="0.54"
         stop-color="gray"
         stop-opacity="0.12"
         id="stop4" />
      <stop
         offset="1"
         stop-color="gray"
         stop-opacity="0.1"
         id="stop6" />
    </linearGradient>
  </defs>
  <title
     id="title11">server status</title>
  <path
     d="M 491.14,4.3956001 487.33,225.3956 c 0,0 137.92,0 255.26,38.1 l 2.29,-223.32 c 0,0 -188.21,-44.9199999 -253.74,-35.7799999 z"
     opacity="0.1"
     id="path15" />
  <path
     d="M 489.14,1.3956001 485.33,222.3956 c 0,0 137.92,0 255.26,38.1 l 2.29,-223.32 c 0,0 -188.21,-44.9199999 -253.74,-35.7799999 z"
     fill="#f5f5fb"
     id="path17" />
  <path
     d="M 432.4,4.2256001 436.21,225.2256 c 0,0 -137.92,0 -255.26,38.1 l -2.29,-223.26 c 0,0 188.21,-44.9799999 253.74,-35.8399999 z"
     opacity="0.1"
     id="path19" />
  <path
     d="M 434.4,1.2256001 438.21,222.2256 c 0,0 -137.92,0 -255.26,38.1 l -2.29,-223.26 c 0,0 188.21,-44.9799999 253.74,-35.8399999 z"
     fill="#f5f5fb"
     id="path21" />
  <path
     d="m 778.17,71.6856 v 218.69 c 0,0 45,-5.33 139.44,111.25 l 8.39,-218.69 c 0,0 -98.3,-105.91 -147.83,-111.25 z"
     opacity="0.1"
     id="path23" />
  <path
     d="m 776.17,69.6856 v 218.69 c 0,0 45,-5.33 139.44,111.25 l 8.39,-218.69 c 0,0 -98.3,-105.91 -147.83,-111.25 z"
     fill="#f5f5fb"
     id="path25" />
  <path
     d="m 147.82,78.1756 v 218.7 c 0,0 -45,-5.33 -139.44,111.25 L 0,189.4356 c 0,0 98.29,-105.91 147.82,-111.26 z"
     opacity="0.1"
     id="path27" />
  <path
     d="m 149.82,75.1756 v 218.7 c 0,0 -45,-5.33 -139.44,111.25 L 2,186.4356 c 0,0 98.29,-105.91 147.82,-111.26 z"
     fill="#f5f5fb"
     id="path29" />
  <path
     d="m 655.82,443.9456 c 0,7.45 -47.31,50.5 -155,50.5 -107.69,0 -166,-41.55 -166,-49 0,-7.45 60.31,11 168,11 107.69,0 153,-19.96 153,-12.5 z"
     fill="#f7f7fd"
     id="path31" />
  <g
     opacity="0.1"
     id="g133"
     transform="translate(-12.24,-25.7344)">
    <ellipse
       cx="508.79999"
       cy="239.5"
       rx="152.12"
       ry="67.889999"
       id="ellipse125" />
    <path
       d="m 735.8,326.86 c -6.73,35.4 -73.23,63.19 -154.29,63.19 -81.77,0 -148.73,-28.28 -154.47,-64.11 h -0.57 v 57.69 c 26.74,27.94 85.94,47.37 154.66,47.37 68.72,0 127.92,-19.43 154.67,-47.37 z"
       transform="translate(-72.24,-63.09)"
       id="path127" />
    <path
       d="m 735.8,397.06 c -6.73,35.39 -73.23,63.19 -154.29,63.19 -81.77,0 -148.73,-28.28 -154.47,-64.12 h -0.57 v 57.7 c 26.74,27.94 85.94,47.36 154.66,47.36 68.72,0 127.92,-19.42 154.67,-47.36 z"
       transform="translate(-72.24,-63.09)"
       id="path129" />
    <path
       d="m 735.8,474.27 c -6.73,35.4 -73.23,63.19 -154.29,63.19 -81.77,0 -148.73,-28.27 -154.47,-64.11 h -0.57 v 62.22 a 9.59,9.59 0 0 0 3.08,7.06 c 28,25.71 85.39,35.78 151.58,35.78 66.19,0 123.55,-10.07 151.59,-35.78 a 9.59,9.59 0 0 0 3.08,-7.06 z"
       transform="translate(-72.24,-63.09)"
       id="path131" />
  </g>
  <ellipse
     cx="496.56"
     cy="209.76559"
     rx="152.12"
     ry="67.889999"
     fill="#008c6f"
     id="ellipse135" />
  <path
     d="m 651.32,234.0356 c -6.73,35.4 -73.23,63.19 -154.29,63.19 -81.77,0 -148.73,-28.28 -154.47,-64.11 h -0.57 v 57.69 c 26.74,27.94 85.94,47.37 154.66,47.37 68.72,0 127.92,-19.43 154.67,-47.37 z"
     fill="#008c6f"
     id="path137" />
  <path
     d="m 651.32,304.2356 c -6.73,35.39 -73.23,63.19 -154.29,63.19 -81.77,0 -148.73,-28.28 -154.47,-64.12 h -0.57 v 57.7 c 26.74,27.94 85.94,47.36 154.66,47.36 68.72,0 127.92,-19.42 154.67,-47.36 z"
     fill="#008c6f"
     id="path139" />
  <path
     d="m 651.32,381.4456 c -6.73,35.4 -73.23,63.19 -154.29,63.19 -81.77,0 -148.73,-28.27 -154.47,-64.11 h -0.57 v 62.22 a 9.59,9.59 0 0 0 3.08,7.06 c 28,25.71 85.39,35.78 151.58,35.78 66.19,0 123.55,-10.07 151.59,-35.78 a 9.59,9.59 0 0 0 3.08,-7.06 z"
     fill="#008c6f"
     id="path141" />
  <path
     d="m 304.21,100.2356 a 21,21 0 1 0 21,21 21,21 0 0 0 -21,-21 z m 0,4.07 a 17,17 0 1 1 -17,17 17,17 0 0 1 17,-17 m 11.89,11.05 -1.91,-1.93 a 1,1 0 0 0 -1.44,0 l -12,11.89 -5.06,-5.14 a 1,1 0 0 0 -1.44,0 l -1.92,1.91 a 1,1 0 0 0 0,1.44 l 7.7,7.76 a 1,1 0 0 0 1.44,0 l 14.63,-14.52 a 1,1 0 0 0 0,-1.44 z"
     fill="#3acc6c"
     opacity="0.7"
     id="path233" />
  <path
     d="m 71.73,206.5556 a 21,21 0 1 0 25.22,15.76 21,21 0 0 0 -25.22,-15.76 z m 0.92,4 a 17,17 0 1 1 -12.71,20.34 17,17 0 0 1 12.71,-20.34 m 14.07,8.1 -2.3,-1.48 a 1,1 0 0 0 -1.4,0.32 l -9,14.28 -6.09,-3.85 a 1,1 0 0 0 -1.4,0.32 l -1.45,2.3 a 1,1 0 0 0 0.32,1.4 l 9.24,5.83 a 1,1 0 0 0 1.41,-0.32 l 11,-17.43 a 1,1 0 0 0 -0.31,-1.4 z"
     fill="#3acc6c"
     opacity="0.7"
     id="path235" />
  <path
     d="m 610.28,103.2756 a 21,21 0 1 0 21,21 21,21 0 0 0 -21,-21 z m 0,4.07 a 17,17 0 1 1 -17,17 17,17 0 0 1 17,-17 m 11.89,11.05 -1.91,-1.93 a 1,1 0 0 0 -1.44,0 l -12,11.89 -5.07,-5.11 a 1,1 0 0 0 -1.44,0 l -1.91,1.93 a 1,1 0 0 0 0,1.44 l 7.7,7.76 a 1,1 0 0 0 1.44,0 l 14.63,-14.52 a 1,1 0 0 0 0,-1.44 z"
     fill="#3acc6c"
     opacity="0.7"
     id="path237" />
  <path
     d="m 851.21,206.9856 a 21,21 0 1 0 19.31,22.59 21,21 0 0 0 -19.31,-22.59 z m -0.32,4.05 a 17,17 0 1 1 -18.22,15.6 16.95,16.95 0 0 1 18.22,-15.6 m 11,11.94 -1.76,-2.07 a 1,1 0 0 0 -1.43,-0.12 l -12.87,10.93 -4.66,-5.49 a 1,1 0 0 0 -1.44,-0.12 l -2.07,1.76 a 1,1 0 0 0 -0.11,1.43 l 7.07,8.33 a 1,1 0 0 0 1.43,0.12 l 15.72,-13.34 a 1,1 0 0 0 0.12,-1.43 z"
     fill="#3acc6c"
     opacity="0.7"
     id="path239" />
</svg>
